<svg width="33" height="20" viewBox="0 0 33 20" fill="none" xmlns="http://www.w3.org/2000/svg">
<path d="M32.4596 5.45962C32.7135 5.20578 32.7135 4.79422 32.4596 4.54038L28.323 0.403806C28.0692 0.149965 27.6576 0.149965 27.4038 0.403806C27.15 0.657647 27.15 1.0692 27.4038 1.32304L31.0808 5L27.4038 8.67696C27.15 8.9308 27.15 9.34235 27.4038 9.59619C27.6576 9.85003 28.0692 9.85003 28.323 9.59619L32.4596 5.45962ZM1 5V5.65L32 5.65V5V4.35L1 4.35L1 5Z" fill="#6DD6E1"/>
<path d="M0.540381 14.5504C0.286539 14.8042 0.286539 15.2158 0.54038 15.4696L4.67695 19.6062C4.9308 19.86 5.34235 19.86 5.59619 19.6062C5.85003 19.3524 5.85003 18.9408 5.59619 18.687L1.91924 15.01L5.59619 11.3331C5.85004 11.0792 5.85004 10.6677 5.59619 10.4138C5.34235 10.16 4.9308 10.16 4.67695 10.4138L0.540381 14.5504ZM32 15.01L32 14.36L1 14.36L1 15.01L1 15.66L32 15.66L32 15.01Z" fill="#6DD6E1"/>
</svg>
