<svg width="62" height="63" viewBox="0 0 62 63" fill="none" xmlns="http://www.w3.org/2000/svg">
<g clip-path="url(#clip0_15_249)">
<path d="M54.3481 14.7656H27.6645C23.9803 14.7656 20.9937 17.7625 20.9937 21.4594V54.9281C20.9937 58.625 23.9803 61.6219 27.6645 61.6219H54.3481C58.0323 61.6219 61.019 58.625 61.019 54.9281V21.4594C61.019 17.7625 58.0323 14.7656 54.3481 14.7656Z" stroke="#6DD6E1" stroke-width="2" stroke-linecap="round" stroke-linejoin="round"/>
<path d="M44.3418 8.07178H17.6583C13.974 8.07178 10.9874 11.0687 10.9874 14.7655V48.2343C10.9874 51.9311 13.974 54.928 17.6583 54.928H44.3418C48.026 54.928 51.0127 51.9311 51.0127 48.2343V14.7655C51.0127 11.0687 48.026 8.07178 44.3418 8.07178Z" stroke="#6DD6E1" stroke-width="2" stroke-linecap="round" stroke-linejoin="round"/>
<path d="M34.3354 1.37817H7.6519C3.96768 1.37817 0.981018 4.37507 0.981018 8.07192V41.5407C0.981018 45.2375 3.96768 48.2344 7.6519 48.2344H34.3354C38.0197 48.2344 41.0063 45.2375 41.0063 41.5407V8.07192C41.0063 4.37507 38.0197 1.37817 34.3354 1.37817Z" stroke="#6DD6E1" stroke-width="2" stroke-linecap="round" stroke-linejoin="round"/>
</g>
<defs>
<clipPath id="clip0_15_249">
<rect width="62" height="63" fill="white"/>
</clipPath>
</defs>
</svg>
