<svg width="81" height="81" viewBox="0 0 81 81" fill="none" xmlns="http://www.w3.org/2000/svg">
<g clip-path="url(#clip0_15_275)">
<path d="M32.6831 80.5331C25.5983 79.0682 18.9873 75.8004 13.7974 71.198C0.473569 59.3825 -3.64421 40.8211 3.39446 24.3055C5.12297 20.2497 7.93307 16.1337 11.4149 12.5578L14.4845 9.40524L14.701 27.8571C14.9082 45.5188 14.9549 46.4085 15.7916 48.6342C17.4655 53.0867 19.2601 55.9216 22.3495 58.9936C30.3298 66.9291 42.0353 68.9096 51.986 64.0078C61.3391 59.4005 67.2355 49.3825 66.5503 39.2632C66.09 32.4661 63.8007 27.4818 58.858 22.5157C55.1205 18.7605 50.7233 16.3077 45.9359 15.3075C41.0651 14.2899 41.2988 14.1412 41.2988 18.2578V21.8117L43.9691 22.303C54.3105 24.2056 61.15 34.3451 58.9945 44.578C58.306 47.8463 56.7704 50.7323 54.3054 53.3908C50.5593 57.4309 45.2889 59.362 40.6869 59.3532C33.0774 59.3385 26.7234 55.021 23.6437 48.6362C23.6437 48.6362 22.837 46.8112 22.5777 45.6835C21.0531 39.0514 22.0276 25.0904 22.0276 25.0904L21.9096 4.67702L23.1165 4.05386C23.7803 3.71111 24.4169 3.43068 24.5312 3.43068C24.6455 3.43068 24.7906 12.8065 24.8537 24.2659C24.8537 24.2659 23.388 39.2876 25.1992 45.0441C25.4605 45.8747 25.9566 47.2952 25.9566 47.2952C27.5443 50.525 30.0889 53.3659 33.3952 54.9297C35.905 56.1167 37.1686 56.6539 40.8817 56.6539C43.3077 56.6539 45.4569 55.8893 47.9298 54.7537C50.845 53.4149 54.1892 49.8655 55.4249 46.6248C58.8297 37.6962 54.0888 28.0901 44.9555 25.4115C41.2227 24.3168 41.2988 24.2565 41.2988 28.3092V31.8492L43.0906 32.3277C49.5492 34.0525 51.5199 42.6962 46.4497 47.1376C44.6584 48.7067 43.0443 49.4004 40.2206 49.4004C37.2035 49.4004 34.3073 47.5769 32.8184 44.7802C31.924 43.1002 31.8485 41.5066 31.8485 40.7768C31.8485 34.0351 31.7023 21.9105 31.7023 21.9105L31.5815 1.11232L32.5087 0.882364C33.0187 0.755887 35.0799 0.442935 37.0892 0.186914C43.9036 -0.681365 53.9851 1.54533 60.7581 5.41464C69.9919 10.6898 76.9788 19.7519 79.8878 30.2261C80.8885 33.829 81 34.8766 81 40.6724C81 46.4423 80.8859 47.5246 79.9065 51.0487C75.9499 65.2845 65.8852 75.4611 51.494 79.7771C48.4652 80.6855 47.0464 80.8587 41.7021 80.9725C37.3892 81.0643 34.5939 80.9281 32.6831 80.5331Z" fill="#D9D9D9"/>
</g>
<defs>
<clipPath id="clip0_15_275">
<rect width="81" height="81" fill="white"/>
</clipPath>
</defs>
</svg>
