<svg width="209" height="54" viewBox="0 0 209 54" fill="none" xmlns="http://www.w3.org/2000/svg">
<path d="M43.5323 49.2152V50.099H39.3961V49.2152H43.5323ZM39.5536 45.6914V53.8874H38.5405V45.6914H39.5536ZM44.4141 45.6914V53.8874H43.4063V45.6914H44.4141Z" fill="#313632" fill-opacity="0.6"/>
<path d="M49.4163 52.846V49.7106C49.4163 49.4704 49.3709 49.2621 49.2799 49.0858C49.1924 48.9056 49.0594 48.7668 48.881 48.6692C48.7025 48.5716 48.482 48.5229 48.2196 48.5229C47.9746 48.5229 47.7594 48.5679 47.574 48.658C47.392 48.748 47.2485 48.8662 47.1435 49.0126C47.0421 49.1589 46.9913 49.3166 46.9913 49.4854H46.0203C46.0203 49.2678 46.0728 49.052 46.1777 48.8381C46.2827 48.6242 46.4332 48.4309 46.6292 48.2583C46.8286 48.0819 47.0666 47.9431 47.343 47.8417C47.623 47.7367 47.9344 47.6841 48.2773 47.6841C48.6902 47.6841 49.0542 47.7592 49.3691 47.9093C49.6875 48.0594 49.936 48.2864 50.1145 48.5904C50.2964 48.8906 50.3874 49.2678 50.3874 49.7219V52.5589C50.3874 52.7616 50.4031 52.9774 50.4346 53.2063C50.4696 53.4352 50.5204 53.6322 50.5869 53.7973V53.8874H49.5738C49.5248 53.7673 49.4863 53.6078 49.4583 53.4089C49.4303 53.2063 49.4163 53.0187 49.4163 52.846ZM49.5843 50.1947L49.5948 50.9265H48.6133C48.3368 50.9265 48.0901 50.9509 47.8732 50.9997C47.6562 51.0447 47.4742 51.1141 47.3273 51.208C47.1803 51.3018 47.0683 51.42 46.9913 51.5626C46.9143 51.7014 46.8759 51.8647 46.8759 52.0523C46.8759 52.2437 46.9161 52.4182 46.9966 52.5758C47.0771 52.7334 47.1978 52.8592 47.3588 52.953C47.5232 53.043 47.7244 53.0881 47.9624 53.0881C48.2598 53.0881 48.5223 53.0205 48.7497 52.8854C48.9772 52.7503 49.1574 52.5852 49.2904 52.3901C49.4268 52.1949 49.5003 52.0054 49.5108 51.8215L49.9255 52.3225C49.901 52.4801 49.8345 52.6546 49.726 52.846C49.6176 53.0374 49.4723 53.2213 49.2904 53.3977C49.1119 53.5703 48.8984 53.7148 48.65 53.8311C48.405 53.9437 48.1286 54 47.8207 54C47.4357 54 47.0981 53.9193 46.8076 53.7579C46.5207 53.5966 46.2967 53.3808 46.1358 53.1106C45.9783 52.8366 45.8995 52.5308 45.8995 52.193C45.8995 51.8666 45.959 51.5795 46.078 51.3318C46.197 51.0804 46.3685 50.8721 46.5924 50.707C46.8164 50.5381 47.0858 50.4105 47.4007 50.3242C47.7157 50.2379 48.0674 50.1947 48.4558 50.1947H49.5843Z" fill="#313632" fill-opacity="0.6"/>
<path d="M55.6993 47.7967V48.658H52.8282V47.7967H55.6993ZM52.9699 47.7967V53.8874H51.9988V47.7967H52.9699ZM56.5602 47.7967V53.8874H55.5839V47.7967H56.5602Z" fill="#313632" fill-opacity="0.6"/>
<path d="M57.8619 50.9096V50.7801C57.8619 50.3411 57.9214 49.9339 58.0404 49.5586C58.1593 49.1796 58.3308 48.8512 58.5548 48.5735C58.7787 48.2921 59.0499 48.0744 59.3683 47.9205C59.6868 47.7629 60.0437 47.6841 60.4391 47.6841C60.8381 47.6841 61.1967 47.7629 61.5152 47.9205C61.8371 48.0744 62.11 48.2921 62.334 48.5735C62.5615 48.8512 62.7347 49.1796 62.8536 49.5586C62.9726 49.9339 63.0321 50.3411 63.0321 50.7801V50.9096C63.0321 51.3487 62.9726 51.7559 62.8536 52.1311C62.7347 52.5064 62.5615 52.8348 62.334 53.1162C62.11 53.3939 61.8389 53.6116 61.5204 53.7692C61.2055 53.9231 60.8485 54 60.4496 54C60.0507 54 59.692 53.9231 59.3736 53.7692C59.0552 53.6116 58.7822 53.3939 58.5548 53.1162C58.3308 52.8348 58.1593 52.5064 58.0404 52.1311C57.9214 51.7559 57.8619 51.3487 57.8619 50.9096ZM58.833 50.7801V50.9096C58.833 51.2136 58.8662 51.5007 58.9327 51.7709C58.9992 52.0373 59.0989 52.2737 59.2319 52.4801C59.3683 52.6865 59.5381 52.8498 59.741 52.9699C59.944 53.0862 60.1802 53.1444 60.4496 53.1444C60.7156 53.1444 60.9483 53.0862 61.1477 52.9699C61.3507 52.8498 61.5187 52.6865 61.6516 52.4801C61.7846 52.2737 61.8843 52.0373 61.9508 51.7709C62.0208 51.5007 62.0558 51.2136 62.0558 50.9096V50.7801C62.0558 50.4799 62.0208 50.1966 61.9508 49.9301C61.8843 49.6599 61.7829 49.4216 61.6464 49.2152C61.5134 49.0051 61.3454 48.84 61.1425 48.7199C60.943 48.5998 60.7086 48.5397 60.4391 48.5397C60.1732 48.5397 59.9387 48.5998 59.7358 48.7199C59.5363 48.84 59.3683 49.0051 59.2319 49.2152C59.0989 49.4216 58.9992 49.6599 58.9327 49.9301C58.8662 50.1966 58.833 50.4799 58.833 50.7801Z" fill="#313632" fill-opacity="0.6"/>
<path d="M67.9609 47.7967V48.658H65.2157V47.7967H67.9609ZM68.8165 47.7967V53.8874H67.8454V47.7967H68.8165ZM64.9795 47.7967H65.9558L65.8088 50.7351C65.7843 51.1892 65.7441 51.5907 65.6881 51.9397C65.6356 52.285 65.5621 52.5815 65.4676 52.8291C65.3766 53.0768 65.2612 53.2795 65.1212 53.4371C64.9847 53.5909 64.8203 53.7054 64.6278 53.7805C64.4353 53.8518 64.2131 53.8874 63.9612 53.8874H63.6567V52.9699L63.8667 52.953C64.0172 52.9417 64.1449 52.9042 64.2499 52.8404C64.3583 52.7766 64.4493 52.6828 64.5228 52.5589C64.5963 52.4313 64.6558 52.2681 64.7013 52.0692C64.7503 51.8703 64.787 51.6339 64.8115 51.3599C64.8395 51.086 64.8605 50.767 64.8745 50.403L64.9795 47.7967Z" fill="#313632" fill-opacity="0.6"/>
<path d="M74.2334 50.4368V51.2811H71.231V50.4368H74.2334ZM71.4357 47.7967V53.8874H70.4646V47.7967H71.4357ZM75.0207 47.7967V53.8874H74.0444V47.7967H75.0207Z" fill="#313632" fill-opacity="0.6"/>
<path d="M77.7344 50.9828H78.7842L77.1413 53.8874H76.0915L77.7344 50.9828ZM78.548 47.7967H80.9205V53.8874H79.9495V48.6411H78.548C78.2716 48.6411 78.0458 48.6917 77.8709 48.7931C77.6959 48.8906 77.5682 49.0182 77.4877 49.1758C77.4072 49.3335 77.367 49.4967 77.367 49.6656C77.367 49.8307 77.4037 49.9902 77.4772 50.144C77.5507 50.2942 77.6662 50.418 77.8236 50.5156C77.9811 50.6131 78.1841 50.6619 78.4325 50.6619H80.2119V51.5176H78.4325C78.1071 51.5176 77.8184 51.4706 77.5664 51.3768C77.3145 51.283 77.101 51.1535 76.9261 50.9884C76.7511 50.8195 76.6181 50.6225 76.5272 50.3974C76.4362 50.1684 76.3907 49.9208 76.3907 49.6543C76.3907 49.3879 76.4379 49.1421 76.5324 48.9169C76.6304 48.6917 76.7704 48.4947 76.9523 48.3258C77.1378 48.157 77.3635 48.0275 77.6294 47.9374C77.8989 47.8436 78.2051 47.7967 78.548 47.7967Z" fill="#313632" fill-opacity="0.6"/>
<path d="M83.5345 52.2381L86.1537 47.7967H87.13V53.8874H86.1537V49.446L83.5345 53.8874H82.5687V47.7967H83.5345V52.2381ZM85.6236 45.5901H86.4109C86.4109 45.8828 86.3479 46.1436 86.222 46.3725C86.096 46.5977 85.9158 46.7741 85.6813 46.9017C85.4469 47.0293 85.1687 47.0931 84.8467 47.0931C84.3603 47.0931 83.9754 46.9542 83.692 46.6765C83.412 46.395 83.272 46.0329 83.272 45.5901H84.0594C84.0594 45.8115 84.1189 46.0066 84.2379 46.1755C84.3568 46.3444 84.5598 46.4288 84.8467 46.4288C85.1267 46.4288 85.3261 46.3444 85.4451 46.1755C85.5641 46.0066 85.6236 45.8115 85.6236 45.5901Z" fill="#313632" fill-opacity="0.6"/>
<path d="M94.0219 51.208H92.1585L92.148 50.3748H93.6702C93.9711 50.3748 94.2213 50.3429 94.4208 50.2791C94.6238 50.2153 94.776 50.1197 94.8775 49.9921C94.9789 49.8645 95.0297 49.7069 95.0297 49.5192C95.0297 49.3729 94.9999 49.2453 94.9405 49.1364C94.8845 49.0238 94.7987 48.9319 94.6833 48.8606C94.5678 48.7856 94.4243 48.7311 94.2528 48.6974C94.0849 48.6598 93.8872 48.6411 93.6597 48.6411H92.4157V53.8874H91.4447V47.7967H93.6597C94.0201 47.7967 94.3438 47.8305 94.6308 47.898C94.9212 47.9656 95.1679 48.0688 95.3709 48.2076C95.5773 48.3427 95.7348 48.5154 95.8433 48.7255C95.9518 48.9357 96.006 49.1833 96.006 49.4686C96.006 49.6524 95.971 49.8269 95.901 49.9921C95.831 50.1572 95.7278 50.3035 95.5913 50.4311C95.4549 50.5587 95.2869 50.6638 95.0874 50.7464C94.888 50.8252 94.6588 50.8758 94.3998 50.8983L94.0219 51.208ZM94.0219 53.8874H91.8068L92.2897 53.043H94.0219C94.2913 53.043 94.5153 53.0074 94.6938 52.9361C94.8722 52.861 95.0052 52.756 95.0927 52.6209C95.1837 52.482 95.2291 52.3169 95.2291 52.1255C95.2291 51.9341 95.1837 51.7709 95.0927 51.6358C95.0052 51.4969 94.8722 51.3918 94.6938 51.3205C94.5153 51.2455 94.2913 51.208 94.0219 51.208H92.5469L92.5574 50.3748H94.3998L94.7515 50.6901C95.0629 50.7163 95.3271 50.7989 95.5441 50.9378C95.761 51.0766 95.9255 51.253 96.0375 51.4669C96.1495 51.677 96.2055 51.906 96.2055 52.1536C96.2055 52.4389 96.1547 52.6903 96.0532 52.9079C95.9552 53.1256 95.8118 53.3076 95.6228 53.454C95.4339 53.5966 95.2047 53.7054 94.9352 53.7805C94.6658 53.8518 94.3613 53.8874 94.0219 53.8874Z" fill="#313632" fill-opacity="0.6"/>
<path d="M102.446 53.1444C102.677 53.1444 102.891 53.0937 103.087 52.9924C103.283 52.8911 103.444 52.7522 103.57 52.5758C103.696 52.3957 103.767 52.1912 103.785 51.9623H104.709C104.691 52.3225 104.578 52.6584 104.368 52.9699C104.161 53.2776 103.89 53.5272 103.554 53.7185C103.218 53.9062 102.849 54 102.446 54C102.02 54 101.647 53.9193 101.328 53.7579C101.013 53.5966 100.751 53.3752 100.541 53.0937C100.335 52.8123 100.179 52.4895 100.074 52.1255C99.9724 51.7577 99.9217 51.3693 99.9217 50.9603V50.7238C99.9217 50.3148 99.9724 49.9283 100.074 49.5642C100.179 49.1965 100.335 48.8719 100.541 48.5904C100.751 48.309 101.013 48.0875 101.328 47.9262C101.647 47.7648 102.02 47.6841 102.446 47.6841C102.891 47.6841 103.279 47.7817 103.612 47.9768C103.944 48.1682 104.205 48.4309 104.394 48.7649C104.586 49.0952 104.691 49.4704 104.709 49.8907H103.785C103.767 49.6393 103.701 49.4123 103.585 49.2096C103.473 49.007 103.32 48.8456 103.124 48.7255C102.931 48.6017 102.705 48.5397 102.446 48.5397C102.149 48.5397 101.899 48.6035 101.696 48.7311C101.496 48.855 101.337 49.0238 101.218 49.2378C101.103 49.4479 101.019 49.6825 100.966 49.9414C100.917 50.1966 100.893 50.4574 100.893 50.7238V50.9603C100.893 51.2267 100.917 51.4894 100.966 51.7483C101.015 52.0073 101.097 52.2418 101.213 52.452C101.332 52.6621 101.491 52.831 101.691 52.9586C101.894 53.0824 102.146 53.1444 102.446 53.1444Z" fill="#313632" fill-opacity="0.6"/>
<path d="M108.467 51.208H106.604L106.593 50.3748H108.115C108.416 50.3748 108.666 50.3429 108.866 50.2791C109.069 50.2153 109.221 50.1197 109.323 49.9921C109.424 49.8645 109.475 49.7069 109.475 49.5192C109.475 49.3729 109.445 49.2453 109.386 49.1364C109.33 49.0238 109.244 48.9319 109.128 48.8606C109.013 48.7856 108.869 48.7311 108.698 48.6974C108.53 48.6598 108.332 48.6411 108.105 48.6411H106.861V53.8874H105.89V47.7967H108.105C108.465 47.7967 108.789 47.8305 109.076 47.898C109.366 47.9656 109.613 48.0688 109.816 48.2076C110.022 48.3427 110.18 48.5154 110.288 48.7255C110.397 48.9357 110.451 49.1833 110.451 49.4686C110.451 49.6524 110.416 49.8269 110.346 49.9921C110.276 50.1572 110.173 50.3035 110.036 50.4311C109.9 50.5587 109.732 50.6638 109.533 50.7464C109.333 50.8252 109.104 50.8758 108.845 50.8983L108.467 51.208ZM108.467 53.8874H106.252L106.735 53.043H108.467C108.736 53.043 108.96 53.0074 109.139 52.9361C109.317 52.861 109.45 52.756 109.538 52.6209C109.629 52.482 109.674 52.3169 109.674 52.1255C109.674 51.9341 109.629 51.7709 109.538 51.6358C109.45 51.4969 109.317 51.3918 109.139 51.3205C108.96 51.2455 108.736 51.208 108.467 51.208H106.992L107.003 50.3748H108.845L109.197 50.6901C109.508 50.7163 109.772 50.7989 109.989 50.9378C110.206 51.0766 110.371 51.253 110.483 51.4669C110.595 51.677 110.651 51.906 110.651 52.1536C110.651 52.4389 110.6 52.6903 110.498 52.9079C110.4 53.1256 110.257 53.3076 110.068 53.454C109.879 53.5966 109.65 53.7054 109.38 53.7805C109.111 53.8518 108.806 53.8874 108.467 53.8874Z" fill="#313632" fill-opacity="0.6"/>
<path d="M111.695 50.9096V50.7801C111.695 50.3411 111.755 49.9339 111.874 49.5586C111.993 49.1796 112.164 48.8512 112.388 48.5735C112.612 48.2921 112.883 48.0744 113.202 47.9205C113.52 47.7629 113.877 47.6841 114.272 47.6841C114.671 47.6841 115.03 47.7629 115.348 47.9205C115.67 48.0744 115.943 48.2921 116.167 48.5735C116.395 48.8512 116.568 49.1796 116.687 49.5586C116.806 49.9339 116.865 50.3411 116.865 50.7801V50.9096C116.865 51.3487 116.806 51.7559 116.687 52.1311C116.568 52.5064 116.395 52.8348 116.167 53.1162C115.943 53.3939 115.672 53.6116 115.354 53.7692C115.039 53.9231 114.682 54 114.283 54C113.884 54 113.525 53.9231 113.207 53.7692C112.888 53.6116 112.615 53.3939 112.388 53.1162C112.164 52.8348 111.993 52.5064 111.874 52.1311C111.755 51.7559 111.695 51.3487 111.695 50.9096ZM112.666 50.7801V50.9096C112.666 51.2136 112.699 51.5007 112.766 51.7709C112.832 52.0373 112.932 52.2737 113.065 52.4801C113.202 52.6865 113.371 52.8498 113.574 52.9699C113.777 53.0862 114.013 53.1444 114.283 53.1444C114.549 53.1444 114.781 53.0862 114.981 52.9699C115.184 52.8498 115.352 52.6865 115.485 52.4801C115.618 52.2737 115.718 52.0373 115.784 51.7709C115.854 51.5007 115.889 51.2136 115.889 50.9096V50.7801C115.889 50.4799 115.854 50.1966 115.784 49.9301C115.718 49.6599 115.616 49.4216 115.48 49.2152C115.347 49.0051 115.179 48.84 114.976 48.7199C114.776 48.5998 114.542 48.5397 114.272 48.5397C114.006 48.5397 113.772 48.5998 113.569 48.7199C113.37 48.84 113.202 49.0051 113.065 49.2152C112.932 49.4216 112.832 49.6599 112.766 49.9301C112.699 50.1966 112.666 50.4799 112.666 50.7801Z" fill="#313632" fill-opacity="0.6"/>
<path d="M120.44 54C120.044 54 119.686 53.9287 119.364 53.7861C119.045 53.6397 118.771 53.4352 118.54 53.1725C118.312 52.9098 118.137 52.5983 118.015 52.2381C117.892 51.8778 117.831 51.4838 117.831 51.056V50.8195C117.831 50.3242 117.899 49.8832 118.036 49.4967C118.172 49.1064 118.358 48.7762 118.592 48.506C118.827 48.2358 119.093 48.0312 119.39 47.8924C119.687 47.7535 119.995 47.6841 120.314 47.6841C120.72 47.6841 121.07 47.7592 121.364 47.9093C121.661 48.0594 121.904 48.2695 122.093 48.5397C122.282 48.8062 122.422 49.1214 122.513 49.4854C122.604 49.8457 122.65 50.2397 122.65 50.6676V51.1348H118.408V50.2848H121.679V50.206C121.665 49.9358 121.612 49.6731 121.521 49.4179C121.434 49.1627 121.294 48.9525 121.101 48.7874C120.909 48.6223 120.646 48.5397 120.314 48.5397C120.093 48.5397 119.89 48.5904 119.705 48.6917C119.52 48.7893 119.36 48.9357 119.227 49.1308C119.094 49.3259 118.991 49.5642 118.918 49.8457C118.844 50.1272 118.807 50.4518 118.807 50.8195V51.056C118.807 51.3449 118.844 51.617 118.918 51.8722C118.995 52.1236 119.105 52.345 119.248 52.5364C119.395 52.7278 119.572 52.8779 119.778 52.9868C119.988 53.0956 120.226 53.15 120.492 53.15C120.835 53.15 121.126 53.0749 121.364 52.9248C121.602 52.7747 121.81 52.574 121.988 52.3225L122.576 52.8235C122.454 53.0224 122.298 53.2119 122.109 53.3921C121.92 53.5722 121.687 53.7185 121.411 53.8311C121.138 53.9437 120.814 54 120.44 54ZM118.618 46.1699C118.618 46.001 118.667 45.8584 118.765 45.7421C118.863 45.6257 119.005 45.5676 119.191 45.5676C119.38 45.5676 119.523 45.6257 119.621 45.7421C119.719 45.8584 119.768 46.001 119.768 46.1699C119.768 46.3313 119.719 46.4701 119.621 46.5864C119.523 46.699 119.38 46.7553 119.191 46.7553C119.005 46.7553 118.863 46.699 118.765 46.5864C118.667 46.4701 118.618 46.3313 118.618 46.1699ZM120.881 46.1811C120.881 46.0123 120.928 45.8697 121.022 45.7533C121.12 45.637 121.264 45.5788 121.453 45.5788C121.638 45.5788 121.78 45.637 121.878 45.7533C121.98 45.8697 122.03 46.0123 122.03 46.1811C122.03 46.3425 121.98 46.4814 121.878 46.5977C121.78 46.7103 121.638 46.7666 121.453 46.7666C121.264 46.7666 121.12 46.7103 121.022 46.5977C120.928 46.4814 120.881 46.3425 120.881 46.1811Z" fill="#313632" fill-opacity="0.6"/>
<path d="M127.048 52.5026L128.98 47.7967H129.914L127.384 53.8874H126.712L124.193 47.7967H125.127L127.048 52.5026ZM124.844 47.7967V53.8874H123.873V47.7967H124.844ZM129.221 53.8874V47.7967H130.198V53.8874H129.221Z" fill="#313632" fill-opacity="0.6"/>
<path d="M136.701 53.1444C136.932 53.1444 137.145 53.0937 137.341 52.9924C137.537 52.8911 137.698 52.7522 137.824 52.5758C137.95 52.3957 138.022 52.1912 138.04 51.9623H138.963C138.946 52.3225 138.832 52.6584 138.622 52.9699C138.416 53.2776 138.145 53.5272 137.809 53.7185C137.473 53.9062 137.103 54 136.701 54C136.274 54 135.901 53.9193 135.583 53.7579C135.268 53.5966 135.006 53.3752 134.796 53.0937C134.589 52.8123 134.434 52.4895 134.329 52.1255C134.227 51.7577 134.176 51.3693 134.176 50.9603V50.7238C134.176 50.3148 134.227 49.9283 134.329 49.5642C134.434 49.1965 134.589 48.8719 134.796 48.5904C135.006 48.309 135.268 48.0875 135.583 47.9262C135.901 47.7648 136.274 47.6841 136.701 47.6841C137.145 47.6841 137.534 47.7817 137.866 47.9768C138.199 48.1682 138.459 48.4309 138.648 48.7649C138.841 49.0952 138.946 49.4704 138.963 49.8907H138.04C138.022 49.6393 137.956 49.4123 137.84 49.2096C137.728 49.007 137.574 48.8456 137.378 48.7255C137.186 48.6017 136.96 48.5397 136.701 48.5397C136.404 48.5397 136.153 48.6035 135.95 48.7311C135.751 48.855 135.592 49.0238 135.473 49.2378C135.357 49.4479 135.273 49.6825 135.221 49.9414C135.172 50.1966 135.147 50.4574 135.147 50.7238V50.9603C135.147 51.2267 135.172 51.4894 135.221 51.7483C135.27 52.0073 135.352 52.2418 135.468 52.452C135.587 52.6621 135.746 52.831 135.945 52.9586C136.148 53.0824 136.4 53.1444 136.701 53.1444Z" fill="#313632" fill-opacity="0.6"/>
<path d="M142.37 47.7967V53.8874H141.394V47.7967H142.37ZM144.275 47.7967V48.6411H139.525V47.7967H144.275Z" fill="#313632" fill-opacity="0.6"/>
<path d="M146.28 52.2381L148.9 47.7967H149.876V53.8874H148.9V49.446L146.28 53.8874H145.315V47.7967H146.28V52.2381Z" fill="#313632" fill-opacity="0.6"/>
<path d="M155.23 47.7967V48.658H152.485V47.7967H155.23ZM156.085 47.7967V53.8874H155.114V47.7967H156.085ZM152.248 47.7967H153.225L153.078 50.7351C153.053 51.1892 153.013 51.5907 152.957 51.9397C152.905 52.285 152.831 52.5815 152.737 52.8291C152.646 53.0768 152.53 53.2795 152.39 53.4371C152.254 53.5909 152.089 53.7054 151.897 53.7805C151.704 53.8518 151.482 53.8874 151.23 53.8874H150.926V52.9699L151.136 52.953C151.286 52.9417 151.414 52.9042 151.519 52.8404C151.627 52.7766 151.718 52.6828 151.792 52.5589C151.865 52.4313 151.925 52.2681 151.97 52.0692C152.019 51.8703 152.056 51.6339 152.08 51.3599C152.108 51.086 152.129 50.767 152.143 50.403L152.248 47.7967Z" fill="#313632" fill-opacity="0.6"/>
<path d="M160.006 54C159.611 54 159.252 53.9287 158.93 53.7861C158.612 53.6397 158.337 53.4352 158.106 53.1725C157.879 52.9098 157.704 52.5983 157.581 52.2381C157.459 51.8778 157.398 51.4838 157.398 51.056V50.8195C157.398 50.3242 157.466 49.8832 157.602 49.4967C157.739 49.1064 157.924 48.7762 158.159 48.506C158.393 48.2358 158.659 48.0312 158.957 47.8924C159.254 47.7535 159.562 47.6841 159.88 47.6841C160.286 47.6841 160.636 47.7592 160.93 47.9093C161.228 48.0594 161.471 48.2695 161.66 48.5397C161.849 48.8062 161.989 49.1214 162.08 49.4854C162.171 49.8457 162.216 50.2397 162.216 50.6676V51.1348H157.975V50.2848H161.245V50.206C161.231 49.9358 161.179 49.6731 161.088 49.4179C161 49.1627 160.86 48.9525 160.668 48.7874C160.475 48.6223 160.213 48.5397 159.88 48.5397C159.66 48.5397 159.457 48.5904 159.272 48.6917C159.086 48.7893 158.927 48.9357 158.794 49.1308C158.661 49.3259 158.558 49.5642 158.484 49.8457C158.411 50.1272 158.374 50.4518 158.374 50.8195V51.056C158.374 51.3449 158.411 51.617 158.484 51.8722C158.561 52.1236 158.671 52.345 158.815 52.5364C158.962 52.7278 159.139 52.8779 159.345 52.9868C159.555 53.0956 159.793 53.15 160.059 53.15C160.402 53.15 160.692 53.0749 160.93 52.9248C161.168 52.7747 161.376 52.574 161.555 52.3225L162.143 52.8235C162.02 53.0224 161.865 53.2119 161.676 53.3921C161.487 53.5722 161.254 53.7185 160.977 53.8311C160.705 53.9437 160.381 54 160.006 54Z" fill="#313632" fill-opacity="0.6"/>
<mask id="path-2-outside-1_75_114" maskUnits="userSpaceOnUse" x="0" y="0" width="209" height="33" fill="black">
<rect fill="white" width="209" height="33"/>
<path d="M132.873 31.5135C129.829 31.5135 127.214 30.9165 125.028 29.7224C122.87 28.5011 121.21 26.7914 120.048 24.5931C118.885 22.3677 118.304 19.7488 118.304 16.7364C118.304 14.4839 118.636 12.462 119.3 10.6709C119.965 8.85256 120.919 7.30565 122.164 6.03012C123.41 4.72746 124.931 3.73689 126.73 3.05842C128.556 2.35281 130.604 2 132.873 2C134.395 2 135.889 2.18997 137.356 2.56992C138.822 2.94986 140.109 3.49264 141.216 4.19825C141.797 4.55105 142.184 4.98528 142.378 5.50091C142.572 5.98941 142.613 6.47791 142.502 6.96641C142.392 7.42777 142.156 7.82129 141.797 8.14695C141.465 8.47262 141.036 8.66259 140.51 8.71687C140.012 8.74401 139.459 8.56761 138.85 8.18766C137.992 7.64488 137.065 7.25137 136.069 7.00712C135.073 6.76287 134.063 6.64075 133.039 6.64075C131.074 6.64075 129.414 7.03426 128.058 7.82129C126.702 8.60831 125.679 9.74815 124.987 11.2408C124.295 12.7334 123.949 14.5653 123.949 16.7364C123.949 18.8804 124.295 20.7122 124.987 22.232C125.679 23.7518 126.702 24.9052 128.058 25.6922C129.414 26.4793 131.074 26.8728 133.039 26.8728C134.09 26.8728 135.128 26.7506 136.152 26.5064C137.176 26.235 138.144 25.8279 139.057 25.2851C139.666 24.9323 140.206 24.7831 140.676 24.8374C141.174 24.8645 141.589 25.0273 141.921 25.3259C142.253 25.6244 142.475 26.0043 142.585 26.4657C142.696 26.8999 142.668 27.3613 142.502 27.8498C142.336 28.3111 142.004 28.7182 141.506 29.071C140.399 29.858 139.071 30.4687 137.522 30.9029C136 31.31 134.45 31.5135 132.873 31.5135Z"/>
<path d="M154.33 31.5135C152.864 31.5135 151.549 31.2421 150.387 30.6994C149.253 30.1294 148.353 29.3695 147.689 28.4197C147.053 27.4698 146.735 26.3978 146.735 25.2037C146.735 23.7382 147.122 22.5848 147.897 21.7435C148.672 20.8751 149.931 20.2509 151.674 19.8709C153.417 19.491 155.755 19.301 158.688 19.301H160.764V22.232H158.73C157.014 22.232 155.645 22.3134 154.621 22.4763C153.597 22.6391 152.864 22.9241 152.421 23.3311C152.006 23.7111 151.798 24.2539 151.798 24.9595C151.798 25.8551 152.117 26.5878 152.753 27.1577C153.389 27.7276 154.275 28.0126 155.409 28.0126C156.323 28.0126 157.125 27.8091 157.817 27.402C158.536 26.9678 159.103 26.3843 159.519 25.6515C159.934 24.9188 160.141 24.0775 160.141 23.1276V18.4462C160.141 17.0892 159.837 16.1122 159.228 15.5152C158.619 14.9181 157.595 14.6196 156.157 14.6196C155.354 14.6196 154.482 14.7146 153.542 14.9045C152.629 15.0945 151.66 15.4202 150.636 15.8815C150.11 16.1258 149.64 16.1936 149.225 16.0851C148.838 15.9765 148.533 15.7594 148.312 15.4337C148.091 15.0809 147.98 14.701 147.98 14.2939C147.98 13.8868 148.091 13.4933 148.312 13.1134C148.533 12.7063 148.907 12.4078 149.433 12.2178C150.705 11.7021 151.923 11.3358 153.085 11.1187C154.275 10.9015 155.354 10.793 156.323 10.793C158.315 10.793 159.947 11.0915 161.22 11.6886C162.521 12.2856 163.489 13.1948 164.126 14.416C164.762 15.6101 165.08 17.1571 165.08 19.0568V28.8268C165.08 29.6681 164.873 30.3194 164.458 30.7808C164.043 31.215 163.448 31.4321 162.673 31.4321C161.898 31.4321 161.289 31.215 160.847 30.7808C160.432 30.3194 160.224 29.6681 160.224 28.8268V26.8728H160.556C160.362 27.8226 159.975 28.6504 159.394 29.356C158.841 30.0344 158.135 30.5637 157.277 30.9436C156.419 31.3235 155.437 31.5135 154.33 31.5135Z"/>
<path d="M173.003 31.4321C172.145 31.4321 171.481 31.215 171.01 30.7808C170.568 30.3194 170.346 29.6681 170.346 28.8268V13.439C170.346 12.5977 170.568 11.96 171.01 11.5257C171.453 11.0915 172.076 10.8744 172.878 10.8744C173.681 10.8744 174.303 11.0915 174.746 11.5257C175.189 11.96 175.41 12.5977 175.41 13.439V16.0037H174.995C175.382 14.3753 176.143 13.1405 177.278 12.2992C178.412 11.4579 179.92 10.9558 181.802 10.793C182.383 10.7387 182.84 10.888 183.172 11.2408C183.531 11.5665 183.739 12.0821 183.794 12.7877C183.85 13.4662 183.684 14.0225 183.296 14.4567C182.937 14.8638 182.383 15.1081 181.636 15.1895L180.723 15.2709C179.035 15.4337 177.762 15.9494 176.904 16.8178C176.047 17.6591 175.618 18.8532 175.618 20.4002V28.8268C175.618 29.6681 175.396 30.3194 174.954 30.7808C174.511 31.215 173.861 31.4321 173.003 31.4321Z"/>
<path d="M195.484 31.5135C193.714 31.5135 192.15 31.0929 190.794 30.2516C189.466 29.4103 188.428 28.2161 187.681 26.6692C186.934 25.0952 186.561 23.2497 186.561 21.1329C186.561 18.9889 186.934 17.1571 187.681 15.6373C188.428 14.0904 189.466 12.8963 190.794 12.0549C192.15 11.2136 193.714 10.793 195.484 10.793C197.172 10.793 198.639 11.2001 199.884 12.0142C201.157 12.8284 202.015 13.9004 202.458 15.2302H202.001V4.64604C202.001 3.80473 202.222 3.16697 202.665 2.73275C203.108 2.29853 203.744 2.08142 204.574 2.08142C205.404 2.08142 206.041 2.29853 206.484 2.73275C206.954 3.16697 207.189 3.80473 207.189 4.64604V28.8268C207.189 29.6681 206.968 30.3194 206.525 30.7808C206.082 31.215 205.446 31.4321 204.616 31.4321C203.786 31.4321 203.149 31.215 202.707 30.7808C202.264 30.3194 202.042 29.6681 202.042 28.8268V25.6515L202.499 26.8728C202.084 28.284 201.24 29.4103 199.967 30.2516C198.694 31.0929 197.2 31.5135 195.484 31.5135ZM196.937 27.6462C197.961 27.6462 198.86 27.402 199.635 26.9135C200.41 26.425 201.005 25.7058 201.42 24.7559C201.863 23.7789 202.084 22.5713 202.084 21.1329C202.084 18.9618 201.614 17.347 200.673 16.2886C199.732 15.2031 198.487 14.6603 196.937 14.6603C195.913 14.6603 195.014 14.9045 194.239 15.393C193.465 15.8544 192.856 16.5736 192.413 17.5506C191.998 18.5004 191.79 19.6945 191.79 21.1329C191.79 23.2769 192.261 24.9052 193.202 26.0179C194.142 27.1035 195.388 27.6462 196.937 27.6462Z"/>
<path d="M16.5686 31.5135C13.5248 31.5135 10.91 30.9165 8.72397 29.7224C6.56566 28.5011 4.90542 26.7914 3.74325 24.5931C2.58108 22.3677 2 19.7488 2 16.7364C2 14.4839 2.33205 12.462 2.99614 10.6709C3.66024 8.85256 4.61488 7.30565 5.86006 6.03012C7.10524 4.72746 8.62713 3.73689 10.4257 3.05842C12.252 2.35281 14.2996 2 16.5686 2C18.0905 2 19.5847 2.18997 21.0513 2.56992C22.5178 2.94986 23.8045 3.49264 24.9113 4.19825C25.4924 4.55105 25.8798 4.98528 26.0735 5.50091C26.2672 5.98941 26.3087 6.47791 26.198 6.96641C26.0873 7.42777 25.8521 7.82129 25.4924 8.14695C25.1604 8.47262 24.7315 8.66259 24.2057 8.71687C23.7076 8.74401 23.1542 8.56761 22.5455 8.18766C21.6877 7.64488 20.7607 7.25137 19.7646 7.00712C18.7684 6.76287 17.7584 6.64075 16.7346 6.64075C14.77 6.64075 13.1098 7.03426 11.7539 7.82129C10.398 8.60831 9.37423 9.74815 8.68247 11.2408C7.9907 12.7334 7.64482 14.5653 7.64482 16.7364C7.64482 18.8804 7.9907 20.7122 8.68247 22.232C9.37423 23.7518 10.398 24.9052 11.7539 25.6922C13.1098 26.4793 14.77 26.8728 16.7346 26.8728C17.7861 26.8728 18.8238 26.7506 19.8476 26.5064C20.8714 26.235 21.8399 25.8279 22.753 25.2851C23.3618 24.9323 23.9013 24.7831 24.3717 24.8374C24.8698 24.8645 25.2849 25.0273 25.6169 25.3259C25.949 25.6244 26.1703 26.0043 26.281 26.4657C26.3917 26.8999 26.364 27.3613 26.198 27.8498C26.032 28.3111 25.6999 28.7182 25.2019 29.071C24.095 29.858 22.7668 30.4687 21.2173 30.9029C19.6954 31.31 18.1458 31.5135 16.5686 31.5135ZM39.0046 31.5135C36.7079 31.5135 34.9785 30.8758 33.8163 29.6002C32.6542 28.2976 32.0731 26.3978 32.0731 23.9011V4.64604C32.0731 3.80473 32.2945 3.16697 32.7372 2.73275C33.1799 2.29853 33.8163 2.08142 34.6465 2.08142C35.4766 2.08142 36.113 2.29853 36.5557 2.73275C37.0261 3.16697 37.2613 3.80473 37.2613 4.64604V23.6568C37.2613 24.9052 37.5242 25.8279 38.0499 26.425C38.6034 27.022 39.3781 27.3206 40.3743 27.3206C40.5957 27.3206 40.8032 27.3206 40.9969 27.3206C41.1906 27.2934 41.3843 27.2663 41.578 27.2391C41.9654 27.1849 42.2282 27.2934 42.3666 27.5648C42.5049 27.8091 42.5741 28.3247 42.5741 29.1117C42.5741 29.7902 42.4358 30.3194 42.159 30.6994C41.8823 31.0793 41.4258 31.31 40.7893 31.3914C40.5126 31.4185 40.2221 31.4457 39.9177 31.4728C39.6133 31.4999 39.309 31.5135 39.0046 31.5135ZM56.5331 31.5135C54.2365 31.5135 52.258 31.0929 50.5978 30.2516C48.9375 29.4103 47.6509 28.2161 46.7377 26.6692C45.8523 25.1223 45.4095 23.2904 45.4095 21.1736C45.4095 19.1111 45.8384 17.3063 46.6962 15.7594C47.5817 14.2125 48.7853 13.0048 50.3072 12.1364C51.8568 11.2408 53.6139 10.793 55.5785 10.793C57.0174 10.793 58.3041 11.0237 59.4386 11.485C60.6007 11.9464 61.583 12.6113 62.3855 13.4797C63.2156 14.3482 63.8382 15.4066 64.2533 16.655C64.696 17.8762 64.9174 19.2603 64.9174 20.8072C64.9174 21.2957 64.7375 21.6757 64.3778 21.9471C64.0457 22.1913 63.5615 22.3134 62.9251 22.3134H49.6016V19.3824H61.2648L60.6007 19.9931C60.6007 18.7447 60.407 17.6998 60.0196 16.8585C59.6599 16.0172 59.1203 15.3795 58.4009 14.9452C57.7091 14.4839 56.8375 14.2532 55.786 14.2532C54.6239 14.2532 53.6277 14.5246 52.7976 15.0674C51.9951 15.583 51.3726 16.3293 50.9298 17.3063C50.5148 18.2562 50.3072 19.396 50.3072 20.7258V21.0108C50.3072 23.2362 50.833 24.9052 51.8845 26.0179C52.9636 27.1035 54.5408 27.6462 56.6161 27.6462C57.3356 27.6462 58.138 27.5648 59.0235 27.402C59.9366 27.212 60.7944 26.8999 61.5969 26.4657C62.178 26.14 62.6899 26.0043 63.1326 26.0586C63.5753 26.0857 63.9212 26.235 64.1702 26.5064C64.4469 26.7778 64.613 27.117 64.6683 27.5241C64.7237 27.904 64.6406 28.2976 64.4193 28.7046C64.2256 29.1117 63.8797 29.4645 63.3816 29.7631C62.4132 30.3601 61.2925 30.8079 60.0196 31.1064C58.7745 31.3778 57.6123 31.5135 56.5331 31.5135ZM77.114 31.5135C75.6474 31.5135 74.3331 31.2421 73.1709 30.6994C72.0364 30.1294 71.1371 29.3695 70.473 28.4197C69.8366 27.4698 69.5184 26.3978 69.5184 25.2037C69.5184 23.7382 69.9058 22.5848 70.6806 21.7435C71.4553 20.8751 72.7144 20.2509 74.4576 19.8709C76.2009 19.491 78.539 19.301 81.4721 19.301H83.5474V22.232H81.5136C79.798 22.232 78.4284 22.3134 77.4045 22.4763C76.3807 22.6391 75.6474 22.9241 75.2047 23.3311C74.7897 23.7111 74.5821 24.2539 74.5821 24.9595C74.5821 25.8551 74.9003 26.5878 75.5368 27.1577C76.1732 27.7276 77.0587 28.0126 78.1932 28.0126C79.1063 28.0126 79.9087 27.8091 80.6005 27.402C81.3199 26.9678 81.8872 26.3843 82.3022 25.6515C82.7173 24.9188 82.9248 24.0775 82.9248 23.1276V18.4462C82.9248 17.0892 82.6205 16.1122 82.0117 15.5152C81.4029 14.9181 80.3791 14.6196 78.9403 14.6196C78.1378 14.6196 77.2662 14.7146 76.3254 14.9045C75.4122 15.0945 74.4438 15.4202 73.42 15.8815C72.8942 16.1258 72.4238 16.1936 72.0088 16.0851C71.6214 15.9765 71.317 15.7594 71.0956 15.4337C70.8743 15.0809 70.7636 14.701 70.7636 14.2939C70.7636 13.8868 70.8743 13.4933 71.0956 13.1134C71.317 12.7063 71.6905 12.4078 72.2163 12.2178C73.4891 11.7021 74.7066 11.3358 75.8688 11.1187C77.0587 10.9015 78.1378 10.793 79.1063 10.793C81.0986 10.793 82.7311 11.0915 84.004 11.6886C85.3045 12.2856 86.273 13.1948 86.9094 14.416C87.5458 15.6101 87.8641 17.1571 87.8641 19.0568V28.8268C87.8641 29.6681 87.6565 30.3194 87.2415 30.7808C86.8264 31.215 86.2315 31.4321 85.4567 31.4321C84.6819 31.4321 84.0732 31.215 83.6304 30.7808C83.2154 30.3194 83.0079 29.6681 83.0079 28.8268V26.8728H83.3399C83.1462 27.8226 82.7588 28.6504 82.1777 29.356C81.6243 30.0344 80.9187 30.5637 80.0609 30.9436C79.2031 31.3235 78.2208 31.5135 77.114 31.5135ZM95.7035 31.4321C94.8734 31.4321 94.2369 31.215 93.7942 30.7808C93.3515 30.3194 93.1301 29.6681 93.1301 28.8268V13.439C93.1301 12.5977 93.3515 11.96 93.7942 11.5257C94.2369 11.0915 94.8595 10.8744 95.662 10.8744C96.4644 10.8744 97.087 11.0915 97.5298 11.5257C97.9725 11.96 98.1939 12.5977 98.1939 13.439V16.2072L97.7373 15.1895C98.346 13.7511 99.2868 12.6656 100.56 11.9328C101.86 11.1729 103.327 10.793 104.959 10.793C106.592 10.793 107.934 11.0915 108.985 11.6886C110.037 12.2856 110.826 13.1948 111.351 14.416C111.877 15.6101 112.14 17.1299 112.14 18.9754V28.8268C112.14 29.6681 111.919 30.3194 111.476 30.7808C111.033 31.215 110.397 31.4321 109.567 31.4321C108.736 31.4321 108.086 31.215 107.616 30.7808C107.173 30.3194 106.952 29.6681 106.952 28.8268V19.2196C106.952 17.6727 106.647 16.5464 106.038 15.8408C105.457 15.1352 104.544 14.7824 103.299 14.7824C101.777 14.7824 100.56 15.2573 99.6466 16.2072C98.7611 17.1299 98.3184 18.3647 98.3184 19.9117V28.8268C98.3184 30.5637 97.4468 31.4321 95.7035 31.4321Z"/>
</mask>
<path d="M132.873 31.5135C129.829 31.5135 127.214 30.9165 125.028 29.7224C122.87 28.5011 121.21 26.7914 120.048 24.5931C118.885 22.3677 118.304 19.7488 118.304 16.7364C118.304 14.4839 118.636 12.462 119.3 10.6709C119.965 8.85256 120.919 7.30565 122.164 6.03012C123.41 4.72746 124.931 3.73689 126.73 3.05842C128.556 2.35281 130.604 2 132.873 2C134.395 2 135.889 2.18997 137.356 2.56992C138.822 2.94986 140.109 3.49264 141.216 4.19825C141.797 4.55105 142.184 4.98528 142.378 5.50091C142.572 5.98941 142.613 6.47791 142.502 6.96641C142.392 7.42777 142.156 7.82129 141.797 8.14695C141.465 8.47262 141.036 8.66259 140.51 8.71687C140.012 8.74401 139.459 8.56761 138.85 8.18766C137.992 7.64488 137.065 7.25137 136.069 7.00712C135.073 6.76287 134.063 6.64075 133.039 6.64075C131.074 6.64075 129.414 7.03426 128.058 7.82129C126.702 8.60831 125.679 9.74815 124.987 11.2408C124.295 12.7334 123.949 14.5653 123.949 16.7364C123.949 18.8804 124.295 20.7122 124.987 22.232C125.679 23.7518 126.702 24.9052 128.058 25.6922C129.414 26.4793 131.074 26.8728 133.039 26.8728C134.09 26.8728 135.128 26.7506 136.152 26.5064C137.176 26.235 138.144 25.8279 139.057 25.2851C139.666 24.9323 140.206 24.7831 140.676 24.8374C141.174 24.8645 141.589 25.0273 141.921 25.3259C142.253 25.6244 142.475 26.0043 142.585 26.4657C142.696 26.8999 142.668 27.3613 142.502 27.8498C142.336 28.3111 142.004 28.7182 141.506 29.071C140.399 29.858 139.071 30.4687 137.522 30.9029C136 31.31 134.45 31.5135 132.873 31.5135Z" fill="#313632"/>
<path d="M154.33 31.5135C152.864 31.5135 151.549 31.2421 150.387 30.6994C149.253 30.1294 148.353 29.3695 147.689 28.4197C147.053 27.4698 146.735 26.3978 146.735 25.2037C146.735 23.7382 147.122 22.5848 147.897 21.7435C148.672 20.8751 149.931 20.2509 151.674 19.8709C153.417 19.491 155.755 19.301 158.688 19.301H160.764V22.232H158.73C157.014 22.232 155.645 22.3134 154.621 22.4763C153.597 22.6391 152.864 22.9241 152.421 23.3311C152.006 23.7111 151.798 24.2539 151.798 24.9595C151.798 25.8551 152.117 26.5878 152.753 27.1577C153.389 27.7276 154.275 28.0126 155.409 28.0126C156.323 28.0126 157.125 27.8091 157.817 27.402C158.536 26.9678 159.103 26.3843 159.519 25.6515C159.934 24.9188 160.141 24.0775 160.141 23.1276V18.4462C160.141 17.0892 159.837 16.1122 159.228 15.5152C158.619 14.9181 157.595 14.6196 156.157 14.6196C155.354 14.6196 154.482 14.7146 153.542 14.9045C152.629 15.0945 151.66 15.4202 150.636 15.8815C150.11 16.1258 149.64 16.1936 149.225 16.0851C148.838 15.9765 148.533 15.7594 148.312 15.4337C148.091 15.0809 147.98 14.701 147.98 14.2939C147.98 13.8868 148.091 13.4933 148.312 13.1134C148.533 12.7063 148.907 12.4078 149.433 12.2178C150.705 11.7021 151.923 11.3358 153.085 11.1187C154.275 10.9015 155.354 10.793 156.323 10.793C158.315 10.793 159.947 11.0915 161.22 11.6886C162.521 12.2856 163.489 13.1948 164.126 14.416C164.762 15.6101 165.08 17.1571 165.08 19.0568V28.8268C165.08 29.6681 164.873 30.3194 164.458 30.7808C164.043 31.215 163.448 31.4321 162.673 31.4321C161.898 31.4321 161.289 31.215 160.847 30.7808C160.432 30.3194 160.224 29.6681 160.224 28.8268V26.8728H160.556C160.362 27.8226 159.975 28.6504 159.394 29.356C158.841 30.0344 158.135 30.5637 157.277 30.9436C156.419 31.3235 155.437 31.5135 154.33 31.5135Z" fill="#313632"/>
<path d="M173.003 31.4321C172.145 31.4321 171.481 31.215 171.01 30.7808C170.568 30.3194 170.346 29.6681 170.346 28.8268V13.439C170.346 12.5977 170.568 11.96 171.01 11.5257C171.453 11.0915 172.076 10.8744 172.878 10.8744C173.681 10.8744 174.303 11.0915 174.746 11.5257C175.189 11.96 175.41 12.5977 175.41 13.439V16.0037H174.995C175.382 14.3753 176.143 13.1405 177.278 12.2992C178.412 11.4579 179.92 10.9558 181.802 10.793C182.383 10.7387 182.84 10.888 183.172 11.2408C183.531 11.5665 183.739 12.0821 183.794 12.7877C183.85 13.4662 183.684 14.0225 183.296 14.4567C182.937 14.8638 182.383 15.1081 181.636 15.1895L180.723 15.2709C179.035 15.4337 177.762 15.9494 176.904 16.8178C176.047 17.6591 175.618 18.8532 175.618 20.4002V28.8268C175.618 29.6681 175.396 30.3194 174.954 30.7808C174.511 31.215 173.861 31.4321 173.003 31.4321Z" fill="#313632"/>
<path d="M195.484 31.5135C193.714 31.5135 192.15 31.0929 190.794 30.2516C189.466 29.4103 188.428 28.2161 187.681 26.6692C186.934 25.0952 186.561 23.2497 186.561 21.1329C186.561 18.9889 186.934 17.1571 187.681 15.6373C188.428 14.0904 189.466 12.8963 190.794 12.0549C192.15 11.2136 193.714 10.793 195.484 10.793C197.172 10.793 198.639 11.2001 199.884 12.0142C201.157 12.8284 202.015 13.9004 202.458 15.2302H202.001V4.64604C202.001 3.80473 202.222 3.16697 202.665 2.73275C203.108 2.29853 203.744 2.08142 204.574 2.08142C205.404 2.08142 206.041 2.29853 206.484 2.73275C206.954 3.16697 207.189 3.80473 207.189 4.64604V28.8268C207.189 29.6681 206.968 30.3194 206.525 30.7808C206.082 31.215 205.446 31.4321 204.616 31.4321C203.786 31.4321 203.149 31.215 202.707 30.7808C202.264 30.3194 202.042 29.6681 202.042 28.8268V25.6515L202.499 26.8728C202.084 28.284 201.24 29.4103 199.967 30.2516C198.694 31.0929 197.2 31.5135 195.484 31.5135ZM196.937 27.6462C197.961 27.6462 198.86 27.402 199.635 26.9135C200.41 26.425 201.005 25.7058 201.42 24.7559C201.863 23.7789 202.084 22.5713 202.084 21.1329C202.084 18.9618 201.614 17.347 200.673 16.2886C199.732 15.2031 198.487 14.6603 196.937 14.6603C195.913 14.6603 195.014 14.9045 194.239 15.393C193.465 15.8544 192.856 16.5736 192.413 17.5506C191.998 18.5004 191.79 19.6945 191.79 21.1329C191.79 23.2769 192.261 24.9052 193.202 26.0179C194.142 27.1035 195.388 27.6462 196.937 27.6462Z" fill="#313632"/>
<path d="M132.873 31.5135C129.829 31.5135 127.214 30.9165 125.028 29.7224C122.87 28.5011 121.21 26.7914 120.048 24.5931C118.885 22.3677 118.304 19.7488 118.304 16.7364C118.304 14.4839 118.636 12.462 119.3 10.6709C119.965 8.85256 120.919 7.30565 122.164 6.03012C123.41 4.72746 124.931 3.73689 126.73 3.05842C128.556 2.35281 130.604 2 132.873 2C134.395 2 135.889 2.18997 137.356 2.56992C138.822 2.94986 140.109 3.49264 141.216 4.19825C141.797 4.55105 142.184 4.98528 142.378 5.50091C142.572 5.98941 142.613 6.47791 142.502 6.96641C142.392 7.42777 142.156 7.82129 141.797 8.14695C141.465 8.47262 141.036 8.66259 140.51 8.71687C140.012 8.74401 139.459 8.56761 138.85 8.18766C137.992 7.64488 137.065 7.25137 136.069 7.00712C135.073 6.76287 134.063 6.64075 133.039 6.64075C131.074 6.64075 129.414 7.03426 128.058 7.82129C126.702 8.60831 125.679 9.74815 124.987 11.2408C124.295 12.7334 123.949 14.5653 123.949 16.7364C123.949 18.8804 124.295 20.7122 124.987 22.232C125.679 23.7518 126.702 24.9052 128.058 25.6922C129.414 26.4793 131.074 26.8728 133.039 26.8728C134.09 26.8728 135.128 26.7506 136.152 26.5064C137.176 26.235 138.144 25.8279 139.057 25.2851C139.666 24.9323 140.206 24.7831 140.676 24.8374C141.174 24.8645 141.589 25.0273 141.921 25.3259C142.253 25.6244 142.475 26.0043 142.585 26.4657C142.696 26.8999 142.668 27.3613 142.502 27.8498C142.336 28.3111 142.004 28.7182 141.506 29.071C140.399 29.858 139.071 30.4687 137.522 30.9029C136 31.31 134.45 31.5135 132.873 31.5135Z" stroke="#313632" stroke-width="2.81081" mask="url(#path-2-outside-1_75_114)"/>
<path d="M154.33 31.5135C152.864 31.5135 151.549 31.2421 150.387 30.6994C149.253 30.1294 148.353 29.3695 147.689 28.4197C147.053 27.4698 146.735 26.3978 146.735 25.2037C146.735 23.7382 147.122 22.5848 147.897 21.7435C148.672 20.8751 149.931 20.2509 151.674 19.8709C153.417 19.491 155.755 19.301 158.688 19.301H160.764V22.232H158.73C157.014 22.232 155.645 22.3134 154.621 22.4763C153.597 22.6391 152.864 22.9241 152.421 23.3311C152.006 23.7111 151.798 24.2539 151.798 24.9595C151.798 25.8551 152.117 26.5878 152.753 27.1577C153.389 27.7276 154.275 28.0126 155.409 28.0126C156.323 28.0126 157.125 27.8091 157.817 27.402C158.536 26.9678 159.103 26.3843 159.519 25.6515C159.934 24.9188 160.141 24.0775 160.141 23.1276V18.4462C160.141 17.0892 159.837 16.1122 159.228 15.5152C158.619 14.9181 157.595 14.6196 156.157 14.6196C155.354 14.6196 154.482 14.7146 153.542 14.9045C152.629 15.0945 151.66 15.4202 150.636 15.8815C150.11 16.1258 149.64 16.1936 149.225 16.0851C148.838 15.9765 148.533 15.7594 148.312 15.4337C148.091 15.0809 147.98 14.701 147.98 14.2939C147.98 13.8868 148.091 13.4933 148.312 13.1134C148.533 12.7063 148.907 12.4078 149.433 12.2178C150.705 11.7021 151.923 11.3358 153.085 11.1187C154.275 10.9015 155.354 10.793 156.323 10.793C158.315 10.793 159.947 11.0915 161.22 11.6886C162.521 12.2856 163.489 13.1948 164.126 14.416C164.762 15.6101 165.08 17.1571 165.08 19.0568V28.8268C165.08 29.6681 164.873 30.3194 164.458 30.7808C164.043 31.215 163.448 31.4321 162.673 31.4321C161.898 31.4321 161.289 31.215 160.847 30.7808C160.432 30.3194 160.224 29.6681 160.224 28.8268V26.8728H160.556C160.362 27.8226 159.975 28.6504 159.394 29.356C158.841 30.0344 158.135 30.5637 157.277 30.9436C156.419 31.3235 155.437 31.5135 154.33 31.5135Z" stroke="#313632" stroke-width="2.81081" mask="url(#path-2-outside-1_75_114)"/>
<path d="M173.003 31.4321C172.145 31.4321 171.481 31.215 171.01 30.7808C170.568 30.3194 170.346 29.6681 170.346 28.8268V13.439C170.346 12.5977 170.568 11.96 171.01 11.5257C171.453 11.0915 172.076 10.8744 172.878 10.8744C173.681 10.8744 174.303 11.0915 174.746 11.5257C175.189 11.96 175.41 12.5977 175.41 13.439V16.0037H174.995C175.382 14.3753 176.143 13.1405 177.278 12.2992C178.412 11.4579 179.92 10.9558 181.802 10.793C182.383 10.7387 182.84 10.888 183.172 11.2408C183.531 11.5665 183.739 12.0821 183.794 12.7877C183.85 13.4662 183.684 14.0225 183.296 14.4567C182.937 14.8638 182.383 15.1081 181.636 15.1895L180.723 15.2709C179.035 15.4337 177.762 15.9494 176.904 16.8178C176.047 17.6591 175.618 18.8532 175.618 20.4002V28.8268C175.618 29.6681 175.396 30.3194 174.954 30.7808C174.511 31.215 173.861 31.4321 173.003 31.4321Z" stroke="#313632" stroke-width="2.81081" mask="url(#path-2-outside-1_75_114)"/>
<path d="M195.484 31.5135C193.714 31.5135 192.15 31.0929 190.794 30.2516C189.466 29.4103 188.428 28.2161 187.681 26.6692C186.934 25.0952 186.561 23.2497 186.561 21.1329C186.561 18.9889 186.934 17.1571 187.681 15.6373C188.428 14.0904 189.466 12.8963 190.794 12.0549C192.15 11.2136 193.714 10.793 195.484 10.793C197.172 10.793 198.639 11.2001 199.884 12.0142C201.157 12.8284 202.015 13.9004 202.458 15.2302H202.001V4.64604C202.001 3.80473 202.222 3.16697 202.665 2.73275C203.108 2.29853 203.744 2.08142 204.574 2.08142C205.404 2.08142 206.041 2.29853 206.484 2.73275C206.954 3.16697 207.189 3.80473 207.189 4.64604V28.8268C207.189 29.6681 206.968 30.3194 206.525 30.7808C206.082 31.215 205.446 31.4321 204.616 31.4321C203.786 31.4321 203.149 31.215 202.707 30.7808C202.264 30.3194 202.042 29.6681 202.042 28.8268V25.6515L202.499 26.8728C202.084 28.284 201.24 29.4103 199.967 30.2516C198.694 31.0929 197.2 31.5135 195.484 31.5135ZM196.937 27.6462C197.961 27.6462 198.86 27.402 199.635 26.9135C200.41 26.425 201.005 25.7058 201.42 24.7559C201.863 23.7789 202.084 22.5713 202.084 21.1329C202.084 18.9618 201.614 17.347 200.673 16.2886C199.732 15.2031 198.487 14.6603 196.937 14.6603C195.913 14.6603 195.014 14.9045 194.239 15.393C193.465 15.8544 192.856 16.5736 192.413 17.5506C191.998 18.5004 191.79 19.6945 191.79 21.1329C191.79 23.2769 192.261 24.9052 193.202 26.0179C194.142 27.1035 195.388 27.6462 196.937 27.6462Z" stroke="#313632" stroke-width="2.81081" mask="url(#path-2-outside-1_75_114)"/>
<path d="M16.5686 31.5135C13.5248 31.5135 10.91 30.9165 8.72397 29.7224C6.56566 28.5011 4.90542 26.7914 3.74325 24.5931C2.58108 22.3677 2 19.7488 2 16.7364C2 14.4839 2.33205 12.462 2.99614 10.6709C3.66024 8.85256 4.61488 7.30565 5.86006 6.03012C7.10524 4.72746 8.62713 3.73689 10.4257 3.05842C12.252 2.35281 14.2996 2 16.5686 2C18.0905 2 19.5847 2.18997 21.0513 2.56992C22.5178 2.94986 23.8045 3.49264 24.9113 4.19825C25.4924 4.55105 25.8798 4.98528 26.0735 5.50091C26.2672 5.98941 26.3087 6.47791 26.198 6.96641C26.0873 7.42777 25.8521 7.82129 25.4924 8.14695C25.1604 8.47262 24.7315 8.66259 24.2057 8.71687C23.7076 8.74401 23.1542 8.56761 22.5455 8.18766C21.6877 7.64488 20.7607 7.25137 19.7646 7.00712C18.7684 6.76287 17.7584 6.64075 16.7346 6.64075C14.77 6.64075 13.1098 7.03426 11.7539 7.82129C10.398 8.60831 9.37423 9.74815 8.68247 11.2408C7.9907 12.7334 7.64482 14.5653 7.64482 16.7364C7.64482 18.8804 7.9907 20.7122 8.68247 22.232C9.37423 23.7518 10.398 24.9052 11.7539 25.6922C13.1098 26.4793 14.77 26.8728 16.7346 26.8728C17.7861 26.8728 18.8238 26.7506 19.8476 26.5064C20.8714 26.235 21.8399 25.8279 22.753 25.2851C23.3618 24.9323 23.9013 24.7831 24.3717 24.8374C24.8698 24.8645 25.2849 25.0273 25.6169 25.3259C25.949 25.6244 26.1703 26.0043 26.281 26.4657C26.3917 26.8999 26.364 27.3613 26.198 27.8498C26.032 28.3111 25.6999 28.7182 25.2019 29.071C24.095 29.858 22.7668 30.4687 21.2173 30.9029C19.6954 31.31 18.1458 31.5135 16.5686 31.5135ZM39.0046 31.5135C36.7079 31.5135 34.9785 30.8758 33.8163 29.6002C32.6542 28.2976 32.0731 26.3978 32.0731 23.9011V4.64604C32.0731 3.80473 32.2945 3.16697 32.7372 2.73275C33.1799 2.29853 33.8163 2.08142 34.6465 2.08142C35.4766 2.08142 36.113 2.29853 36.5557 2.73275C37.0261 3.16697 37.2613 3.80473 37.2613 4.64604V23.6568C37.2613 24.9052 37.5242 25.8279 38.0499 26.425C38.6034 27.022 39.3781 27.3206 40.3743 27.3206C40.5957 27.3206 40.8032 27.3206 40.9969 27.3206C41.1906 27.2934 41.3843 27.2663 41.578 27.2391C41.9654 27.1849 42.2282 27.2934 42.3666 27.5648C42.5049 27.8091 42.5741 28.3247 42.5741 29.1117C42.5741 29.7902 42.4358 30.3194 42.159 30.6994C41.8823 31.0793 41.4258 31.31 40.7893 31.3914C40.5126 31.4185 40.2221 31.4457 39.9177 31.4728C39.6133 31.4999 39.309 31.5135 39.0046 31.5135ZM56.5331 31.5135C54.2365 31.5135 52.258 31.0929 50.5978 30.2516C48.9375 29.4103 47.6509 28.2161 46.7377 26.6692C45.8523 25.1223 45.4095 23.2904 45.4095 21.1736C45.4095 19.1111 45.8384 17.3063 46.6962 15.7594C47.5817 14.2125 48.7853 13.0048 50.3072 12.1364C51.8568 11.2408 53.6139 10.793 55.5785 10.793C57.0174 10.793 58.3041 11.0237 59.4386 11.485C60.6007 11.9464 61.583 12.6113 62.3855 13.4797C63.2156 14.3482 63.8382 15.4066 64.2533 16.655C64.696 17.8762 64.9174 19.2603 64.9174 20.8072C64.9174 21.2957 64.7375 21.6757 64.3778 21.9471C64.0457 22.1913 63.5615 22.3134 62.9251 22.3134H49.6016V19.3824H61.2648L60.6007 19.9931C60.6007 18.7447 60.407 17.6998 60.0196 16.8585C59.6599 16.0172 59.1203 15.3795 58.4009 14.9452C57.7091 14.4839 56.8375 14.2532 55.786 14.2532C54.6239 14.2532 53.6277 14.5246 52.7976 15.0674C51.9951 15.583 51.3726 16.3293 50.9298 17.3063C50.5148 18.2562 50.3072 19.396 50.3072 20.7258V21.0108C50.3072 23.2362 50.833 24.9052 51.8845 26.0179C52.9636 27.1035 54.5408 27.6462 56.6161 27.6462C57.3356 27.6462 58.138 27.5648 59.0235 27.402C59.9366 27.212 60.7944 26.8999 61.5969 26.4657C62.178 26.14 62.6899 26.0043 63.1326 26.0586C63.5753 26.0857 63.9212 26.235 64.1702 26.5064C64.4469 26.7778 64.613 27.117 64.6683 27.5241C64.7237 27.904 64.6406 28.2976 64.4193 28.7046C64.2256 29.1117 63.8797 29.4645 63.3816 29.7631C62.4132 30.3601 61.2925 30.8079 60.0196 31.1064C58.7745 31.3778 57.6123 31.5135 56.5331 31.5135ZM77.114 31.5135C75.6474 31.5135 74.3331 31.2421 73.1709 30.6994C72.0364 30.1294 71.1371 29.3695 70.473 28.4197C69.8366 27.4698 69.5184 26.3978 69.5184 25.2037C69.5184 23.7382 69.9058 22.5848 70.6806 21.7435C71.4553 20.8751 72.7144 20.2509 74.4576 19.8709C76.2009 19.491 78.539 19.301 81.4721 19.301H83.5474V22.232H81.5136C79.798 22.232 78.4284 22.3134 77.4045 22.4763C76.3807 22.6391 75.6474 22.9241 75.2047 23.3311C74.7897 23.7111 74.5821 24.2539 74.5821 24.9595C74.5821 25.8551 74.9003 26.5878 75.5368 27.1577C76.1732 27.7276 77.0587 28.0126 78.1932 28.0126C79.1063 28.0126 79.9087 27.8091 80.6005 27.402C81.3199 26.9678 81.8872 26.3843 82.3022 25.6515C82.7173 24.9188 82.9248 24.0775 82.9248 23.1276V18.4462C82.9248 17.0892 82.6205 16.1122 82.0117 15.5152C81.4029 14.9181 80.3791 14.6196 78.9403 14.6196C78.1378 14.6196 77.2662 14.7146 76.3254 14.9045C75.4122 15.0945 74.4438 15.4202 73.42 15.8815C72.8942 16.1258 72.4238 16.1936 72.0088 16.0851C71.6214 15.9765 71.317 15.7594 71.0956 15.4337C70.8743 15.0809 70.7636 14.701 70.7636 14.2939C70.7636 13.8868 70.8743 13.4933 71.0956 13.1134C71.317 12.7063 71.6905 12.4078 72.2163 12.2178C73.4891 11.7021 74.7066 11.3358 75.8688 11.1187C77.0587 10.9015 78.1378 10.793 79.1063 10.793C81.0986 10.793 82.7311 11.0915 84.004 11.6886C85.3045 12.2856 86.273 13.1948 86.9094 14.416C87.5458 15.6101 87.8641 17.1571 87.8641 19.0568V28.8268C87.8641 29.6681 87.6565 30.3194 87.2415 30.7808C86.8264 31.215 86.2315 31.4321 85.4567 31.4321C84.6819 31.4321 84.0732 31.215 83.6304 30.7808C83.2154 30.3194 83.0079 29.6681 83.0079 28.8268V26.8728H83.3399C83.1462 27.8226 82.7588 28.6504 82.1777 29.356C81.6243 30.0344 80.9187 30.5637 80.0609 30.9436C79.2031 31.3235 78.2208 31.5135 77.114 31.5135ZM95.7035 31.4321C94.8734 31.4321 94.2369 31.215 93.7942 30.7808C93.3515 30.3194 93.1301 29.6681 93.1301 28.8268V13.439C93.1301 12.5977 93.3515 11.96 93.7942 11.5257C94.2369 11.0915 94.8595 10.8744 95.662 10.8744C96.4644 10.8744 97.087 11.0915 97.5298 11.5257C97.9725 11.96 98.1939 12.5977 98.1939 13.439V16.2072L97.7373 15.1895C98.346 13.7511 99.2868 12.6656 100.56 11.9328C101.86 11.1729 103.327 10.793 104.959 10.793C106.592 10.793 107.934 11.0915 108.985 11.6886C110.037 12.2856 110.826 13.1948 111.351 14.416C111.877 15.6101 112.14 17.1299 112.14 18.9754V28.8268C112.14 29.6681 111.919 30.3194 111.476 30.7808C111.033 31.215 110.397 31.4321 109.567 31.4321C108.736 31.4321 108.086 31.215 107.616 30.7808C107.173 30.3194 106.952 29.6681 106.952 28.8268V19.2196C106.952 17.6727 106.647 16.5464 106.038 15.8408C105.457 15.1352 104.544 14.7824 103.299 14.7824C101.777 14.7824 100.56 15.2573 99.6466 16.2072C98.7611 17.1299 98.3184 18.3647 98.3184 19.9117V28.8268C98.3184 30.5637 97.4468 31.4321 95.7035 31.4321Z" stroke="#313632" stroke-width="2.81081" mask="url(#path-2-outside-1_75_114)"/>
</svg>
