<svg width="148" height="38" viewBox="0 0 148 38" fill="none" xmlns="http://www.w3.org/2000/svg">
<path d="M30.5518 34.5955V35.2243H27.6088V34.5955H30.5518ZM27.7208 32.0881V37.9199H27V32.0881H27.7208ZM31.1793 32.0881V37.9199H30.4622V32.0881H31.1793Z" fill="#313632" fill-opacity="0.6"/>
<path d="M34.7386 37.1789V34.9479C34.7386 34.777 34.7062 34.6288 34.6415 34.5033C34.5792 34.3752 34.4846 34.2764 34.3576 34.2069C34.2306 34.1375 34.0738 34.1028 33.887 34.1028C33.7127 34.1028 33.5596 34.1348 33.4276 34.1989C33.2982 34.263 33.1961 34.3471 33.1214 34.4513C33.0492 34.5554 33.0131 34.6676 33.0131 34.7877H32.3221C32.3221 34.6328 32.3595 34.4793 32.4342 34.3271C32.5089 34.1749 32.6159 34.0374 32.7554 33.9146C32.8973 33.7891 33.0666 33.6903 33.2633 33.6182C33.4625 33.5434 33.6841 33.506 33.9281 33.506C34.2219 33.506 34.4809 33.5594 34.7049 33.6662C34.9315 33.773 35.1083 33.9346 35.2353 34.1509C35.3648 34.3645 35.4295 34.6328 35.4295 34.9559V36.9746C35.4295 37.1188 35.4407 37.2724 35.4631 37.4352C35.488 37.5981 35.5241 37.7383 35.5714 37.8558V37.9199H34.8506C34.8157 37.8344 34.7884 37.721 34.7684 37.5794C34.7485 37.4352 34.7386 37.3017 34.7386 37.1789ZM34.8581 35.2924L34.8655 35.8131H34.1671C33.9704 35.8131 33.7949 35.8304 33.6405 35.8652C33.4862 35.8972 33.3567 35.9466 33.2521 36.0134C33.1475 36.0801 33.0678 36.1642 33.0131 36.2657C32.9583 36.3645 32.9309 36.4806 32.9309 36.6142C32.9309 36.7503 32.9595 36.8745 33.0168 36.9866C33.0741 37.0988 33.16 37.1883 33.2745 37.255C33.3915 37.3191 33.5347 37.3511 33.704 37.3511C33.9157 37.3511 34.1024 37.3031 34.2642 37.2069C34.4261 37.1108 34.5543 36.9933 34.6489 36.8545C34.746 36.7156 34.7983 36.5808 34.8058 36.4499L35.1008 36.8064C35.0834 36.9186 35.0361 37.0427 34.9589 37.1789C34.8817 37.3151 34.7784 37.4459 34.6489 37.5714C34.5219 37.6943 34.3701 37.7971 34.1933 37.8798C34.019 37.9599 33.8223 38 33.6032 38C33.3293 38 33.089 37.9426 32.8824 37.8278C32.6782 37.713 32.5188 37.5594 32.4043 37.3672C32.2923 37.1722 32.2362 36.9546 32.2362 36.7143C32.2362 36.482 32.2786 36.2777 32.3632 36.1015C32.4479 35.9226 32.5699 35.7744 32.7292 35.6569C32.8886 35.5367 33.0803 35.4459 33.3044 35.3845C33.5285 35.3231 33.7787 35.2924 34.0551 35.2924H34.8581Z" fill="#313632" fill-opacity="0.6"/>
<path d="M39.2092 33.5861V34.1989H37.1662V33.5861H39.2092ZM37.267 33.5861V37.9199H36.5761V33.5861H37.267ZM39.8217 33.5861V37.9199H39.127V33.5861H39.8217Z" fill="#313632" fill-opacity="0.6"/>
<path d="M40.7479 35.8011V35.7089C40.7479 35.3965 40.7902 35.1068 40.8749 34.8398C40.9595 34.5701 41.0815 34.3364 41.2409 34.1389C41.4002 33.9386 41.5932 33.7837 41.8198 33.6742C42.0464 33.5621 42.3003 33.506 42.5817 33.506C42.8655 33.506 43.1208 33.5621 43.3473 33.6742C43.5764 33.7837 43.7706 33.9386 43.93 34.1389C44.0918 34.3364 44.2151 34.5701 44.2997 34.8398C44.3844 35.1068 44.4267 35.3965 44.4267 35.7089V35.8011C44.4267 36.1135 44.3844 36.4032 44.2997 36.6702C44.2151 36.9372 44.0918 37.1709 43.93 37.3712C43.7706 37.5688 43.5777 37.7236 43.3511 37.8358C43.127 37.9453 42.873 38 42.5892 38C42.3053 38 42.0501 37.9453 41.8235 37.8358C41.597 37.7236 41.4027 37.5688 41.2409 37.3712C41.0815 37.1709 40.9595 36.9372 40.8749 36.6702C40.7902 36.4032 40.7479 36.1135 40.7479 35.8011ZM41.4388 35.7089V35.8011C41.4388 36.0174 41.4625 36.2216 41.5098 36.4139C41.5571 36.6035 41.6281 36.7717 41.7227 36.9186C41.8198 37.0654 41.9406 37.1816 42.085 37.267C42.2294 37.3498 42.3974 37.3912 42.5892 37.3912C42.7784 37.3912 42.944 37.3498 43.0859 37.267C43.2303 37.1816 43.3498 37.0654 43.4444 36.9186C43.5391 36.7717 43.61 36.6035 43.6573 36.4139C43.7071 36.2216 43.732 36.0174 43.732 35.8011V35.7089C43.732 35.4953 43.7071 35.2937 43.6573 35.1041C43.61 34.9119 43.5378 34.7423 43.4407 34.5955C43.3461 34.4459 43.2266 34.3284 43.0822 34.243C42.9402 34.1575 42.7734 34.1148 42.5817 34.1148C42.3925 34.1148 42.2256 34.1575 42.0812 34.243C41.9393 34.3284 41.8198 34.4459 41.7227 34.5955C41.6281 34.7423 41.5571 34.9119 41.5098 35.1041C41.4625 35.2937 41.4388 35.4953 41.4388 35.7089Z" fill="#313632" fill-opacity="0.6"/>
<path d="M47.9337 33.5861V34.1989H45.9804V33.5861H47.9337ZM48.5425 33.5861V37.9199H47.8515V33.5861H48.5425ZM45.8123 33.5861H46.507L46.4024 35.6769C46.385 36 46.3564 36.2857 46.3165 36.534C46.2792 36.7797 46.2269 36.9907 46.1597 37.1669C46.0949 37.3431 46.0128 37.4873 45.9132 37.5995C45.8161 37.7089 45.699 37.7904 45.5621 37.8438C45.4251 37.8945 45.267 37.9199 45.0878 37.9199H44.8711V37.267L45.0205 37.255C45.1276 37.247 45.2185 37.2203 45.2932 37.1749C45.3704 37.1295 45.4351 37.0628 45.4874 36.9746C45.5397 36.8838 45.582 36.7677 45.6144 36.6262C45.6492 36.4846 45.6754 36.3164 45.6928 36.1215C45.7127 35.9266 45.7277 35.6996 45.7376 35.4406L45.8123 33.5861Z" fill="#313632" fill-opacity="0.6"/>
<path d="M52.3968 35.4646V36.0654H50.2605V35.4646H52.3968ZM50.4062 33.5861V37.9199H49.7152V33.5861H50.4062ZM52.9571 33.5861V37.9199H52.2624V33.5861H52.9571Z" fill="#313632" fill-opacity="0.6"/>
<path d="M54.888 35.8531H55.6349L54.4659 37.9199H53.719L54.888 35.8531ZM55.4669 33.5861H57.155V37.9199H56.4641V34.1869H55.4669C55.2702 34.1869 55.1096 34.223 54.9851 34.2951C54.8606 34.3645 54.7697 34.4553 54.7124 34.5674C54.6552 34.6796 54.6265 34.7957 54.6265 34.9159C54.6265 35.0334 54.6527 35.1469 54.7049 35.2563C54.7572 35.3632 54.8394 35.4513 54.9514 35.5207C55.0635 35.5901 55.2079 35.6248 55.3847 35.6248H56.6508V36.2336H55.3847C55.1531 36.2336 54.9477 36.2003 54.7684 36.1335C54.5892 36.0668 54.4373 35.9746 54.3128 35.8571C54.1883 35.737 54.0937 35.5968 54.0289 35.4366C53.9642 35.2737 53.9318 35.0975 53.9318 34.9079C53.9318 34.7183 53.9655 34.5434 54.0327 34.3832C54.1024 34.223 54.202 34.0828 54.3315 33.9626C54.4634 33.8425 54.624 33.7503 54.8133 33.6862C55.005 33.6195 55.2228 33.5861 55.4669 33.5861Z" fill="#313632" fill-opacity="0.6"/>
<path d="M59.0149 36.7463L60.8786 33.5861H61.5733V37.9199H60.8786V34.7597L59.0149 37.9199H58.3277V33.5861H59.0149V36.7463ZM60.5014 32.016H61.0616C61.0616 32.2243 61.0168 32.4099 60.9272 32.5728C60.8375 32.733 60.7093 32.8585 60.5425 32.9493C60.3757 33.0401 60.1777 33.0854 59.9486 33.0854C59.6026 33.0854 59.3287 32.9866 59.127 32.7891C58.9278 32.5888 58.8282 32.3311 58.8282 32.016H59.3884C59.3884 32.1736 59.4308 32.3124 59.5154 32.4326C59.6001 32.5527 59.7445 32.6128 59.9486 32.6128C60.1478 32.6128 60.2898 32.5527 60.3744 32.4326C60.4591 32.3124 60.5014 32.1736 60.5014 32.016Z" fill="#313632" fill-opacity="0.6"/>
<path d="M66.4771 36.0134H65.1513L65.1438 35.4206H66.2269C66.441 35.4206 66.619 35.3979 66.761 35.3525C66.9054 35.3071 67.0137 35.239 67.0859 35.1482C67.1581 35.0574 67.1942 34.9453 67.1942 34.8117C67.1942 34.7076 67.173 34.6168 67.1307 34.5394C67.0909 34.4593 67.0299 34.3939 66.9477 34.3431C66.8655 34.2897 66.7635 34.251 66.6415 34.227C66.5219 34.2003 66.3813 34.1869 66.2194 34.1869H65.3343V37.9199H64.6433V33.5861H66.2194C66.4759 33.5861 66.7062 33.6101 66.9104 33.6582C67.117 33.7063 67.2926 33.7797 67.437 33.8785C67.5839 33.9746 67.6959 34.0975 67.7731 34.247C67.8503 34.3965 67.8889 34.5728 67.8889 34.7757C67.8889 34.9065 67.864 35.0307 67.8142 35.1482C67.7644 35.2657 67.6909 35.3698 67.5938 35.4606C67.4967 35.5514 67.3772 35.6262 67.2353 35.6849C67.0934 35.741 66.9303 35.777 66.746 35.7931L66.4771 36.0134ZM66.4771 37.9199H64.901L65.2446 37.3191H66.4771C66.6688 37.3191 66.8282 37.2937 66.9552 37.243C67.0822 37.1896 67.1768 37.1148 67.239 37.0187C67.3038 36.9199 67.3361 36.8024 67.3361 36.6662C67.3361 36.53 67.3038 36.4139 67.239 36.3178C67.1768 36.219 67.0822 36.1442 66.9552 36.0935C66.8282 36.0401 66.6688 36.0134 66.4771 36.0134H65.4276L65.4351 35.4206H66.746L66.9963 35.6449C67.2179 35.6636 67.4059 35.7223 67.5602 35.8211C67.7146 35.9199 67.8316 36.0454 67.9113 36.1976C67.991 36.3471 68.0308 36.51 68.0308 36.6862C68.0308 36.8892 67.9947 37.0681 67.9225 37.223C67.8528 37.3778 67.7507 37.5073 67.6162 37.6115C67.4818 37.713 67.3187 37.7904 67.127 37.8438C66.9353 37.8945 66.7186 37.9199 66.4771 37.9199Z" fill="#313632" fill-opacity="0.6"/>
<path d="M72.4715 37.3912C72.6359 37.3912 72.7877 37.3551 72.9272 37.283C73.0666 37.2109 73.1811 37.1121 73.2708 36.9866C73.3604 36.8585 73.4115 36.713 73.4239 36.5501H74.0812C74.0688 36.8064 73.9879 37.0454 73.8385 37.267C73.6916 37.486 73.4986 37.6636 73.2596 37.7997C73.0205 37.9332 72.7579 38 72.4715 38C72.1678 38 71.9026 37.9426 71.676 37.8278C71.4519 37.713 71.2652 37.5554 71.1158 37.3551C70.9689 37.1549 70.8581 36.9252 70.7834 36.6662C70.7112 36.4045 70.6751 36.1282 70.6751 35.8371V35.6689C70.6751 35.3778 70.7112 35.1028 70.7834 34.8438C70.8581 34.5821 70.9689 34.3511 71.1158 34.1509C71.2652 33.9506 71.4519 33.7931 71.676 33.6782C71.9026 33.5634 72.1678 33.506 72.4715 33.506C72.7877 33.506 73.0641 33.5754 73.3007 33.7143C73.5372 33.8505 73.7227 34.0374 73.8571 34.275C73.9941 34.51 74.0688 34.777 74.0812 35.0761H73.4239C73.4115 34.8972 73.3641 34.7356 73.282 34.5915C73.2023 34.4473 73.0928 34.3324 72.9533 34.247C72.8164 34.1589 72.6558 34.1148 72.4715 34.1148C72.2599 34.1148 72.0819 34.1602 71.9374 34.251C71.7955 34.3391 71.6822 34.4593 71.5976 34.6115C71.5154 34.761 71.4557 34.9279 71.4183 35.1121C71.3834 35.2937 71.366 35.4793 71.366 35.6689V35.8371C71.366 36.0267 71.3834 36.2136 71.4183 36.3979C71.4532 36.5821 71.5117 36.749 71.5938 36.8985C71.6785 37.0481 71.7918 37.1682 71.9337 37.259C72.0781 37.3471 72.2574 37.3912 72.4715 37.3912Z" fill="#313632" fill-opacity="0.6"/>
<path d="M76.7554 36.0134H75.4295L75.422 35.4206H76.5051C76.7193 35.4206 76.8973 35.3979 77.0392 35.3525C77.1836 35.3071 77.2919 35.239 77.3641 35.1482C77.4364 35.0574 77.4725 34.9453 77.4725 34.8117C77.4725 34.7076 77.4513 34.6168 77.409 34.5394C77.3691 34.4593 77.3081 34.3939 77.226 34.3431C77.1438 34.2897 77.0417 34.251 76.9197 34.227C76.8002 34.2003 76.6595 34.1869 76.4977 34.1869H75.6125V37.9199H74.9216V33.5861H76.4977C76.7541 33.5861 76.9844 33.6101 77.1886 33.6582C77.3953 33.7063 77.5708 33.7797 77.7152 33.8785C77.8621 33.9746 77.9742 34.0975 78.0514 34.247C78.1285 34.3965 78.1671 34.5728 78.1671 34.7757C78.1671 34.9065 78.1422 35.0307 78.0924 35.1482C78.0426 35.2657 77.9692 35.3698 77.8721 35.4606C77.775 35.5514 77.6555 35.6262 77.5135 35.6849C77.3716 35.741 77.2085 35.777 77.0243 35.7931L76.7554 36.0134ZM76.7554 37.9199H75.1793L75.5229 37.3191H76.7554C76.9471 37.3191 77.1064 37.2937 77.2334 37.243C77.3604 37.1896 77.455 37.1148 77.5173 37.0187C77.582 36.9199 77.6144 36.8024 77.6144 36.6662C77.6144 36.53 77.582 36.4139 77.5173 36.3178C77.455 36.219 77.3604 36.1442 77.2334 36.0935C77.1064 36.0401 76.9471 36.0134 76.7554 36.0134H75.7059L75.7134 35.4206H77.0243L77.2745 35.6449C77.4961 35.6636 77.6841 35.7223 77.8385 35.8211C77.9928 35.9199 78.1099 36.0454 78.1895 36.1976C78.2692 36.3471 78.3091 36.51 78.3091 36.6862C78.3091 36.8892 78.273 37.0681 78.2007 37.223C78.131 37.3778 78.0289 37.5073 77.8945 37.6115C77.76 37.713 77.597 37.7904 77.4052 37.8438C77.2135 37.8945 76.9969 37.9199 76.7554 37.9199Z" fill="#313632" fill-opacity="0.6"/>
<path d="M79.0523 35.8011V35.7089C79.0523 35.3965 79.0946 35.1068 79.1793 34.8398C79.2639 34.5701 79.3859 34.3364 79.5453 34.1389C79.7046 33.9386 79.8976 33.7837 80.1242 33.6742C80.3508 33.5621 80.6047 33.506 80.8861 33.506C81.1699 33.506 81.4251 33.5621 81.6517 33.6742C81.8808 33.7837 82.075 33.9386 82.2344 34.1389C82.3962 34.3364 82.5195 34.5701 82.6041 34.8398C82.6888 35.1068 82.7311 35.3965 82.7311 35.7089V35.8011C82.7311 36.1135 82.6888 36.4032 82.6041 36.6702C82.5195 36.9372 82.3962 37.1709 82.2344 37.3712C82.075 37.5688 81.882 37.7236 81.6555 37.8358C81.4314 37.9453 81.1774 38 80.8936 38C80.6097 38 80.3545 37.9453 80.1279 37.8358C79.9013 37.7236 79.7071 37.5688 79.5453 37.3712C79.3859 37.1709 79.2639 36.9372 79.1793 36.6702C79.0946 36.4032 79.0523 36.1135 79.0523 35.8011ZM79.7432 35.7089V35.8011C79.7432 36.0174 79.7669 36.2216 79.8142 36.4139C79.8615 36.6035 79.9325 36.7717 80.0271 36.9186C80.1242 37.0654 80.2449 37.1816 80.3894 37.267C80.5338 37.3498 80.7018 37.3912 80.8936 37.3912C81.0828 37.3912 81.2484 37.3498 81.3903 37.267C81.5347 37.1816 81.6542 37.0654 81.7488 36.9186C81.8434 36.7717 81.9144 36.6035 81.9617 36.4139C82.0115 36.2216 82.0364 36.0174 82.0364 35.8011V35.7089C82.0364 35.4953 82.0115 35.2937 81.9617 35.1041C81.9144 34.9119 81.8422 34.7423 81.7451 34.5955C81.6505 34.4459 81.531 34.3284 81.3866 34.243C81.2446 34.1575 81.0778 34.1148 80.8861 34.1148C80.6969 34.1148 80.53 34.1575 80.3856 34.243C80.2437 34.3284 80.1242 34.4459 80.0271 34.5955C79.9325 34.7423 79.8615 34.9119 79.8142 35.1041C79.7669 35.2937 79.7432 35.4953 79.7432 35.7089Z" fill="#313632" fill-opacity="0.6"/>
<path d="M85.2745 38C84.9932 38 84.7379 37.9493 84.5089 37.8478C84.2823 37.7437 84.0868 37.5981 83.9225 37.4112C83.7607 37.2243 83.6362 37.0027 83.549 36.7463C83.4619 36.49 83.4183 36.2096 83.4183 35.9052V35.737C83.4183 35.3845 83.4669 35.0708 83.564 34.7957C83.6611 34.518 83.793 34.283 83.9599 34.0908C84.1267 33.8985 84.3159 33.753 84.5275 33.6542C84.7392 33.5554 84.9583 33.506 85.1849 33.506C85.4737 33.506 85.7227 33.5594 85.9318 33.6662C86.1435 33.773 86.3165 33.9226 86.451 34.1148C86.5854 34.3044 86.685 34.5287 86.7498 34.7877C86.8145 35.0441 86.8469 35.3244 86.8469 35.6288V35.9613H83.8291V35.3565H86.1559V35.3004C86.146 35.1081 86.1086 34.9212 86.0439 34.7397C85.9816 34.5581 85.882 34.4085 85.7451 34.2911C85.6082 34.1736 85.4214 34.1148 85.1849 34.1148C85.028 34.1148 84.8836 34.1509 84.7516 34.223C84.6197 34.2924 84.5064 34.3965 84.4118 34.5354C84.3172 34.6742 84.2437 34.8438 84.1914 35.0441C84.1391 35.2443 84.113 35.4753 84.113 35.737V35.9052C84.113 36.1108 84.1391 36.3044 84.1914 36.486C84.2462 36.6649 84.3246 36.8224 84.4267 36.9586C84.5313 37.0948 84.657 37.2016 84.8039 37.279C84.9533 37.3565 85.1226 37.3952 85.3119 37.3952C85.5559 37.3952 85.7625 37.3418 85.9318 37.235C86.1012 37.1282 86.2493 36.9853 86.3763 36.8064L86.7946 37.1629C86.7074 37.3044 86.5966 37.4393 86.4622 37.5674C86.3277 37.6956 86.1622 37.7997 85.9655 37.8798C85.7712 37.9599 85.5409 38 85.2745 38ZM83.9785 32.4286C83.9785 32.3084 84.0134 32.2069 84.0831 32.1242C84.1528 32.0414 84.2537 32 84.3856 32C84.5201 32 84.6222 32.0414 84.6919 32.1242C84.7616 32.2069 84.7965 32.3084 84.7965 32.4286C84.7965 32.5434 84.7616 32.6422 84.6919 32.725C84.6222 32.8051 84.5201 32.8451 84.3856 32.8451C84.2537 32.8451 84.1528 32.8051 84.0831 32.725C84.0134 32.6422 83.9785 32.5434 83.9785 32.4286ZM85.5882 32.4366C85.5882 32.3164 85.6218 32.215 85.6891 32.1322C85.7588 32.0494 85.8609 32.008 85.9953 32.008C86.1273 32.008 86.2281 32.0494 86.2979 32.1322C86.3701 32.215 86.4062 32.3164 86.4062 32.4366C86.4062 32.5514 86.3701 32.6502 86.2979 32.733C86.2281 32.8131 86.1273 32.8531 85.9953 32.8531C85.8609 32.8531 85.7588 32.8131 85.6891 32.733C85.6218 32.6502 85.5882 32.5514 85.5882 32.4366Z" fill="#313632" fill-opacity="0.6"/>
<path d="M89.9767 36.9346L91.3511 33.5861H92.0159L90.2157 37.9199H89.7376L87.9449 33.5861H88.6097L89.9767 36.9346ZM88.408 33.5861V37.9199H87.7171V33.5861H88.408ZM91.5229 37.9199V33.5861H92.2176V37.9199H91.5229Z" fill="#313632" fill-opacity="0.6"/>
<path d="M96.845 37.3912C97.0093 37.3912 97.1612 37.3551 97.3007 37.283C97.4401 37.2109 97.5546 37.1121 97.6443 36.9866C97.7339 36.8585 97.7849 36.713 97.7974 36.5501H98.4547C98.4423 36.8064 98.3613 37.0454 98.212 37.267C98.065 37.486 97.8721 37.6636 97.6331 37.7997C97.394 37.9332 97.1313 38 96.845 38C96.5412 38 96.2761 37.9426 96.0495 37.8278C95.8254 37.713 95.6387 37.5554 95.4893 37.3551C95.3424 37.1549 95.2316 36.9252 95.1569 36.6662C95.0847 36.4045 95.0486 36.1282 95.0486 35.8371V35.6689C95.0486 35.3778 95.0847 35.1028 95.1569 34.8438C95.2316 34.5821 95.3424 34.3511 95.4893 34.1509C95.6387 33.9506 95.8254 33.7931 96.0495 33.6782C96.2761 33.5634 96.5412 33.506 96.845 33.506C97.1612 33.506 97.4376 33.5754 97.6741 33.7143C97.9107 33.8505 98.0962 34.0374 98.2306 34.275C98.3676 34.51 98.4423 34.777 98.4547 35.0761H97.7974C97.7849 34.8972 97.7376 34.7356 97.6555 34.5915C97.5758 34.4473 97.4662 34.3324 97.3268 34.247C97.1899 34.1589 97.0293 34.1148 96.845 34.1148C96.6334 34.1148 96.4553 34.1602 96.3109 34.251C96.169 34.3391 96.0557 34.4593 95.9711 34.6115C95.8889 34.761 95.8291 34.9279 95.7918 35.1121C95.7569 35.2937 95.7395 35.4793 95.7395 35.6689V35.8371C95.7395 36.0267 95.7569 36.2136 95.7918 36.3979C95.8266 36.5821 95.8852 36.749 95.9673 36.8985C96.052 37.0481 96.1653 37.1682 96.3072 37.259C96.4516 37.3471 96.6309 37.3912 96.845 37.3912Z" fill="#313632" fill-opacity="0.6"/>
<path d="M100.879 33.5861V37.9199H100.184V33.5861H100.879ZM102.234 33.5861V34.1869H98.8543V33.5861H102.234Z" fill="#313632" fill-opacity="0.6"/>
<path d="M103.661 36.7463L105.525 33.5861H106.219V37.9199H105.525V34.7597L103.661 37.9199H102.974V33.5861H103.661V36.7463Z" fill="#313632" fill-opacity="0.6"/>
<path d="M110.029 33.5861V34.1989H108.076V33.5861H110.029ZM110.638 33.5861V37.9199H109.947V33.5861H110.638ZM107.908 33.5861H108.602L108.498 35.6769C108.48 36 108.452 36.2857 108.412 36.534C108.374 36.7797 108.322 36.9907 108.255 37.1669C108.19 37.3431 108.108 37.4873 108.008 37.5995C107.911 37.7089 107.794 37.7904 107.657 37.8438C107.52 37.8945 107.362 37.9199 107.183 37.9199H106.966V37.267L107.116 37.255C107.223 37.247 107.314 37.2203 107.388 37.1749C107.466 37.1295 107.53 37.0628 107.583 36.9746C107.635 36.8838 107.677 36.7677 107.71 36.6262C107.744 36.4846 107.771 36.3164 107.788 36.1215C107.808 35.9266 107.823 35.6996 107.833 35.4406L107.908 33.5861Z" fill="#313632" fill-opacity="0.6"/>
<path d="M113.428 38C113.146 38 112.891 37.9493 112.662 37.8478C112.435 37.7437 112.24 37.5981 112.076 37.4112C111.914 37.2243 111.789 37.0027 111.702 36.7463C111.615 36.49 111.571 36.2096 111.571 35.9052V35.737C111.571 35.3845 111.62 35.0708 111.717 34.7957C111.814 34.518 111.946 34.283 112.113 34.0908C112.28 33.8985 112.469 33.753 112.681 33.6542C112.892 33.5554 113.111 33.506 113.338 33.506C113.627 33.506 113.876 33.5594 114.085 33.6662C114.297 33.773 114.47 33.9226 114.604 34.1148C114.739 34.3044 114.838 34.5287 114.903 34.7877C114.968 35.0441 115 35.3244 115 35.6288V35.9613H111.982V35.3565H114.309V35.3004C114.299 35.1081 114.262 34.9212 114.197 34.7397C114.135 34.5581 114.035 34.4085 113.898 34.2911C113.761 34.1736 113.575 34.1148 113.338 34.1148C113.181 34.1148 113.037 34.1509 112.905 34.223C112.773 34.2924 112.66 34.3965 112.565 34.5354C112.47 34.6742 112.397 34.8438 112.345 35.0441C112.292 35.2443 112.266 35.4753 112.266 35.737V35.9052C112.266 36.1108 112.292 36.3044 112.345 36.486C112.399 36.6649 112.478 36.8224 112.58 36.9586C112.684 37.0948 112.81 37.2016 112.957 37.279C113.106 37.3565 113.276 37.3952 113.465 37.3952C113.709 37.3952 113.916 37.3418 114.085 37.235C114.254 37.1282 114.402 36.9853 114.529 36.8064L114.948 37.1629C114.861 37.3044 114.75 37.4393 114.615 37.5674C114.481 37.6956 114.315 37.7997 114.119 37.8798C113.924 37.9599 113.694 38 113.428 38Z" fill="#313632" fill-opacity="0.6"/>
<mask id="path-2-outside-1_4027_3" maskUnits="userSpaceOnUse" x="0" y="0" width="148" height="23" fill="black">
<rect fill="white" width="148" height="23"/>
<path d="M94.1211 22C91.9554 22 90.0948 21.5752 88.5394 20.7255C87.0036 19.8566 85.8223 18.64 84.9954 17.0759C84.1685 15.4924 83.755 13.629 83.755 11.4855C83.755 9.88276 83.9913 8.44414 84.4638 7.16966C84.9363 5.87586 85.6156 4.77517 86.5016 3.86759C87.3876 2.94069 88.4704 2.23586 89.7502 1.7531C91.0497 1.25103 92.5066 1 94.1211 1C95.204 1 96.2672 1.13517 97.3107 1.40552C98.3542 1.67586 99.2697 2.06207 100.057 2.56414C100.471 2.81517 100.746 3.12414 100.884 3.49104C101.022 3.83862 101.052 4.18621 100.973 4.53379C100.894 4.86207 100.727 5.14207 100.471 5.37379C100.234 5.60552 99.9293 5.74069 99.5552 5.77931C99.2008 5.79862 98.807 5.6731 98.3739 5.40276C97.7635 5.01655 97.104 4.73655 96.3952 4.56276C95.6864 4.38897 94.9677 4.30207 94.2393 4.30207C92.8414 4.30207 91.66 4.58207 90.6953 5.14207C89.7305 5.70207 89.002 6.5131 88.5098 7.57517C88.0176 8.63724 87.7715 9.94069 87.7715 11.4855C87.7715 13.011 88.0176 14.3145 88.5098 15.3959C89.002 16.4772 89.7305 17.2979 90.6953 17.8579C91.66 18.4179 92.8414 18.6979 94.2393 18.6979C94.9874 18.6979 95.7258 18.611 96.4542 18.4372C97.1827 18.2441 97.8718 17.9545 98.5216 17.5683C98.9547 17.3172 99.3386 17.211 99.6733 17.2497C100.028 17.269 100.323 17.3848 100.559 17.5972C100.796 17.8097 100.953 18.08 101.032 18.4083C101.111 18.7172 101.091 19.0455 100.973 19.3931C100.855 19.7214 100.618 20.011 100.264 20.2621C99.4765 20.8221 98.5314 21.2566 97.4288 21.5655C96.346 21.8552 95.2434 22 94.1211 22Z"/>
<path d="M109.389 22C108.345 22 107.41 21.8069 106.583 21.4207C105.776 21.0152 105.136 20.4745 104.664 19.7986C104.211 19.1228 103.984 18.36 103.984 17.5103C103.984 16.4676 104.26 15.6469 104.811 15.0483C105.362 14.4303 106.258 13.9862 107.499 13.7159C108.739 13.4455 110.403 13.3103 112.49 13.3103H113.966V15.3959H112.519C111.299 15.3959 110.324 15.4538 109.596 15.5697C108.867 15.6855 108.345 15.8883 108.03 16.1779C107.735 16.4483 107.587 16.8345 107.587 17.3366C107.587 17.9738 107.814 18.4952 108.267 18.9007C108.719 19.3062 109.349 19.509 110.157 19.509C110.806 19.509 111.377 19.3641 111.87 19.0745C112.382 18.7655 112.785 18.3503 113.08 17.829C113.376 17.3076 113.523 16.709 113.523 16.0331V12.7021C113.523 11.7366 113.307 11.0414 112.874 10.6166C112.441 10.1917 111.712 9.97931 110.688 9.97931C110.117 9.97931 109.497 10.0469 108.828 10.1821C108.178 10.3172 107.489 10.549 106.76 10.8772C106.386 11.051 106.052 11.0993 105.756 11.0221C105.481 10.9448 105.264 10.7903 105.107 10.5586C104.949 10.3076 104.87 10.0372 104.87 9.74759C104.87 9.45793 104.949 9.17793 105.107 8.90759C105.264 8.61793 105.53 8.40552 105.904 8.27035C106.81 7.90345 107.676 7.64276 108.503 7.48828C109.349 7.33379 110.117 7.25655 110.806 7.25655C112.224 7.25655 113.386 7.46897 114.291 7.89379C115.217 8.31862 115.906 8.96552 116.359 9.83448C116.812 10.6841 117.038 11.7848 117.038 13.1366V20.0883C117.038 20.6869 116.89 21.1503 116.595 21.4786C116.3 21.7876 115.876 21.9421 115.325 21.9421C114.774 21.9421 114.341 21.7876 114.026 21.4786C113.73 21.1503 113.583 20.6869 113.583 20.0883V18.6979H113.819C113.681 19.3738 113.405 19.9628 112.992 20.4648C112.598 20.9476 112.096 21.3241 111.486 21.5945C110.875 21.8648 110.176 22 109.389 22Z"/>
<path d="M122.675 21.9421C122.065 21.9421 121.592 21.7876 121.257 21.4786C120.942 21.1503 120.785 20.6869 120.785 20.0883V9.13931C120.785 8.54069 120.942 8.0869 121.257 7.77793C121.572 7.46897 122.015 7.31448 122.586 7.31448C123.157 7.31448 123.6 7.46897 123.915 7.77793C124.23 8.0869 124.388 8.54069 124.388 9.13931V10.9641H124.093C124.368 9.80552 124.91 8.9269 125.717 8.32828C126.524 7.72966 127.597 7.37241 128.936 7.25655C129.35 7.21793 129.674 7.32414 129.911 7.57517C130.167 7.8069 130.314 8.17379 130.354 8.67586C130.393 9.15862 130.275 9.55448 129.999 9.86345C129.743 10.1531 129.35 10.3269 128.818 10.3848L128.168 10.4428C126.967 10.5586 126.062 10.9255 125.451 11.5434C124.841 12.1421 124.536 12.9917 124.536 14.0924V20.0883C124.536 20.6869 124.378 21.1503 124.063 21.4786C123.748 21.7876 123.285 21.9421 122.675 21.9421Z"/>
<path d="M138.672 22C137.412 22 136.299 21.7007 135.334 21.1021C134.389 20.5034 133.651 19.6538 133.119 18.5531C132.588 17.4331 132.322 16.12 132.322 14.6138C132.322 13.0883 132.588 11.7848 133.119 10.7034C133.651 9.60276 134.389 8.7531 135.334 8.15448C136.299 7.55586 137.412 7.25655 138.672 7.25655C139.873 7.25655 140.916 7.54621 141.802 8.12552C142.708 8.70483 143.318 9.46759 143.633 10.4138H143.308V2.88276C143.308 2.28414 143.466 1.83034 143.781 1.52138C144.096 1.21241 144.549 1.05793 145.139 1.05793C145.73 1.05793 146.183 1.21241 146.498 1.52138C146.833 1.83034 147 2.28414 147 2.88276V20.0883C147 20.6869 146.842 21.1503 146.527 21.4786C146.212 21.7876 145.76 21.9421 145.169 21.9421C144.578 21.9421 144.125 21.7876 143.81 21.4786C143.495 21.1503 143.338 20.6869 143.338 20.0883V17.829L143.663 18.6979C143.367 19.7021 142.767 20.5034 141.861 21.1021C140.956 21.7007 139.892 22 138.672 22ZM139.705 19.2483C140.434 19.2483 141.074 19.0745 141.625 18.7269C142.176 18.3793 142.6 17.8676 142.895 17.1917C143.21 16.4966 143.367 15.6372 143.367 14.6138C143.367 13.069 143.033 11.92 142.363 11.1669C141.694 10.3945 140.808 10.0083 139.705 10.0083C138.977 10.0083 138.337 10.1821 137.786 10.5297C137.234 10.8579 136.801 11.3697 136.486 12.0648C136.191 12.7407 136.043 13.5903 136.043 14.6138C136.043 16.1393 136.378 17.2979 137.047 18.0897C137.717 18.8621 138.603 19.2483 139.705 19.2483Z"/>
<path d="M11.3661 22C9.20036 22 7.33978 21.5752 5.78437 20.7255C4.24864 19.8566 3.06732 18.64 2.24039 17.0759C1.41346 15.4924 1 13.629 1 11.4855C1 9.88276 1.23626 8.44414 1.70879 7.16966C2.18132 5.87586 2.86059 4.77517 3.74658 3.86759C4.63257 2.94069 5.71546 2.23586 6.99522 1.7531C8.29468 1.25103 9.75165 1 11.3661 1C12.449 1 13.5122 1.13517 14.5557 1.40552C15.5992 1.67586 16.5147 2.06207 17.3023 2.56414C17.7157 2.81517 17.9914 3.12414 18.1292 3.49104C18.267 3.83862 18.2966 4.18621 18.2178 4.53379C18.1391 4.86207 17.9717 5.14207 17.7157 5.37379C17.4795 5.60552 17.1743 5.74069 16.8002 5.77931C16.4458 5.79862 16.052 5.6731 15.6189 5.40276C15.0085 5.01655 14.349 4.73655 13.6402 4.56276C12.9314 4.38897 12.2127 4.30207 11.4843 4.30207C10.0864 4.30207 8.90503 4.58207 7.94028 5.14207C6.97554 5.70207 6.24705 6.5131 5.75483 7.57517C5.26261 8.63724 5.0165 9.94069 5.0165 11.4855C5.0165 13.011 5.26261 14.3145 5.75483 15.3959C6.24705 16.4772 6.97554 17.2979 7.94028 17.8579C8.90503 18.4179 10.0864 18.6979 11.4843 18.6979C12.2324 18.6979 12.9708 18.611 13.6992 18.4372C14.4277 18.2441 15.1168 17.9545 15.7666 17.5683C16.1997 17.3172 16.5836 17.211 16.9184 17.2497C17.2728 17.269 17.5681 17.3848 17.8043 17.5972C18.0406 17.8097 18.1981 18.08 18.2769 18.4083C18.3556 18.7172 18.3359 19.0455 18.2178 19.3931C18.0997 19.7214 17.8634 20.011 17.509 20.2621C16.7215 20.8221 15.7764 21.2566 14.6738 21.5655C13.591 21.8552 12.4884 22 11.3661 22ZM27.3302 22C25.696 22 24.4655 21.5462 23.6386 20.6386C22.8116 19.7117 22.3982 18.36 22.3982 16.5834V2.88276C22.3982 2.28414 22.5557 1.83034 22.8707 1.52138C23.1857 1.21241 23.6385 1.05793 24.2292 1.05793C24.8199 1.05793 25.2727 1.21241 25.5877 1.52138C25.9224 1.83034 26.0898 2.28414 26.0898 2.88276V16.4097C26.0898 17.2979 26.2768 17.9545 26.6509 18.3793C27.0447 18.8041 27.596 19.0166 28.3048 19.0166C28.4623 19.0166 28.61 19.0166 28.7478 19.0166C28.8856 18.9972 29.0234 18.9779 29.1612 18.9586C29.4369 18.92 29.6239 18.9972 29.7224 19.1903C29.8208 19.3641 29.87 19.731 29.87 20.291C29.87 20.7738 29.7716 21.1503 29.5747 21.4207C29.3778 21.691 29.053 21.8552 28.6001 21.9131C28.4032 21.9324 28.1965 21.9517 27.9799 21.971C27.7633 21.9903 27.5468 22 27.3302 22ZM39.8024 22C38.1683 22 36.7605 21.7007 35.5792 21.1021C34.3979 20.5034 33.4823 19.6538 32.8326 18.5531C32.2026 17.4524 31.8875 16.149 31.8875 14.6428C31.8875 13.1752 32.1927 11.891 32.8031 10.7903C33.4331 9.68966 34.2896 8.83035 35.3725 8.21241C36.475 7.57517 37.7253 7.25655 39.1232 7.25655C40.147 7.25655 41.0625 7.42069 41.8697 7.74897C42.6967 8.07724 43.3956 8.55035 43.9666 9.16828C44.5573 9.78621 45.0003 10.5393 45.2956 11.4276C45.6106 12.2966 45.7681 13.2814 45.7681 14.3821C45.7681 14.7297 45.6401 15 45.3842 15.1931C45.1479 15.3669 44.8034 15.4538 44.3505 15.4538H34.8704V13.3683H43.1692L42.6967 13.8028C42.6967 12.9145 42.5588 12.171 42.2832 11.5724C42.0272 10.9738 41.6433 10.52 41.1314 10.211C40.6392 9.88276 40.019 9.71862 39.2708 9.71862C38.4439 9.71862 37.7351 9.91172 37.1444 10.2979C36.5735 10.6648 36.1305 11.1959 35.8155 11.891C35.5201 12.5669 35.3725 13.3779 35.3725 14.3241V14.5269C35.3725 16.1103 35.7465 17.2979 36.4947 18.0897C37.2626 18.8621 38.3848 19.2483 39.8615 19.2483C40.3734 19.2483 40.9444 19.1903 41.5744 19.0745C42.2241 18.9393 42.8345 18.7172 43.4055 18.4083C43.8189 18.1766 44.1832 18.08 44.4982 18.1186C44.8132 18.1379 45.0593 18.2441 45.2365 18.4372C45.4334 18.6303 45.5515 18.8717 45.5909 19.1614C45.6303 19.4317 45.5712 19.7117 45.4137 20.0014C45.2759 20.291 45.0298 20.5421 44.6754 20.7545C43.9863 21.1793 43.1889 21.4979 42.2832 21.7103C41.3972 21.9035 40.5703 22 39.8024 22ZM54.4465 22C53.403 22 52.4678 21.8069 51.6409 21.4207C50.8336 21.0152 50.1937 20.4745 49.7212 19.7986C49.2684 19.1228 49.0419 18.36 49.0419 17.5103C49.0419 16.4676 49.3176 15.6469 49.8689 15.0483C50.4201 14.4303 51.316 13.9862 52.5564 13.7159C53.7968 13.4455 55.4605 13.3103 57.5475 13.3103H59.0241V15.3959H57.577C56.3563 15.3959 55.3817 15.4538 54.6532 15.5697C53.9247 15.6855 53.403 15.8883 53.088 16.1779C52.7926 16.4483 52.645 16.8345 52.645 17.3366C52.645 17.9738 52.8714 18.4952 53.3242 18.9007C53.7771 19.3062 54.4071 19.509 55.2144 19.509C55.8641 19.509 56.4351 19.3641 56.9273 19.0745C57.4392 18.7655 57.8428 18.3503 58.1381 17.829C58.4335 17.3076 58.5811 16.709 58.5811 16.0331V12.7021C58.5811 11.7366 58.3646 11.0414 57.9314 10.6166C57.4983 10.1917 56.7698 9.97931 55.746 9.97931C55.175 9.97931 54.5548 10.0469 53.8854 10.1821C53.2356 10.3172 52.5465 10.549 51.818 10.8772C51.444 11.051 51.1093 11.0993 50.8139 11.0221C50.5383 10.9448 50.3217 10.7903 50.1642 10.5586C50.0067 10.3076 49.9279 10.0372 49.9279 9.74759C49.9279 9.45793 50.0067 9.17793 50.1642 8.90759C50.3217 8.61793 50.5875 8.40552 50.9616 8.27035C51.8673 7.90345 52.7336 7.64276 53.5605 7.48828C54.4071 7.33379 55.175 7.25655 55.8641 7.25655C57.2817 7.25655 58.4433 7.46897 59.349 7.89379C60.2744 8.31862 60.9635 8.96552 61.4163 9.83448C61.8692 10.6841 62.0956 11.7848 62.0956 13.1366V20.0883C62.0956 20.6869 61.9479 21.1503 61.6526 21.4786C61.3572 21.7876 60.9339 21.9421 60.3827 21.9421C59.8314 21.9421 59.3982 21.7876 59.0832 21.4786C58.7879 21.1503 58.6402 20.6869 58.6402 20.0883V18.6979H58.8765C58.7386 19.3738 58.463 19.9628 58.0495 20.4648C57.6558 20.9476 57.1537 21.3241 56.5433 21.5945C55.933 21.8648 55.234 22 54.4465 22ZM67.6736 21.9421C67.083 21.9421 66.6301 21.7876 66.3151 21.4786C66.0001 21.1503 65.8426 20.6869 65.8426 20.0883V9.13931C65.8426 8.54069 66.0001 8.0869 66.3151 7.77793C66.6301 7.46897 67.0731 7.31448 67.6441 7.31448C68.2151 7.31448 68.6581 7.46897 68.9731 7.77793C69.2881 8.0869 69.4456 8.54069 69.4456 9.13931V11.109L69.1208 10.3848C69.5539 9.36138 70.2233 8.58897 71.129 8.06759C72.0544 7.5269 73.0979 7.25655 74.2595 7.25655C75.4212 7.25655 76.3761 7.46897 77.1242 7.89379C77.8724 8.31862 78.4335 8.96552 78.8076 9.83448C79.1817 10.6841 79.3688 11.7655 79.3688 13.0786V20.0883C79.3688 20.6869 79.2113 21.1503 78.8962 21.4786C78.5812 21.7876 78.1284 21.9421 77.5377 21.9421C76.947 21.9421 76.4844 21.7876 76.1497 21.4786C75.8346 21.1503 75.6771 20.6869 75.6771 20.0883V13.2524C75.6771 12.1517 75.4605 11.3503 75.0274 10.8483C74.6139 10.3462 73.9642 10.0952 73.0782 10.0952C71.9953 10.0952 71.129 10.4331 70.4793 11.109C69.8492 11.7655 69.5342 12.6441 69.5342 13.7448V20.0883C69.5342 21.3241 68.914 21.9421 67.6736 21.9421Z"/>
</mask>
<path d="M94.1211 22C91.9554 22 90.0948 21.5752 88.5394 20.7255C87.0036 19.8566 85.8223 18.64 84.9954 17.0759C84.1685 15.4924 83.755 13.629 83.755 11.4855C83.755 9.88276 83.9913 8.44414 84.4638 7.16966C84.9363 5.87586 85.6156 4.77517 86.5016 3.86759C87.3876 2.94069 88.4704 2.23586 89.7502 1.7531C91.0497 1.25103 92.5066 1 94.1211 1C95.204 1 96.2672 1.13517 97.3107 1.40552C98.3542 1.67586 99.2697 2.06207 100.057 2.56414C100.471 2.81517 100.746 3.12414 100.884 3.49104C101.022 3.83862 101.052 4.18621 100.973 4.53379C100.894 4.86207 100.727 5.14207 100.471 5.37379C100.234 5.60552 99.9293 5.74069 99.5552 5.77931C99.2008 5.79862 98.807 5.6731 98.3739 5.40276C97.7635 5.01655 97.104 4.73655 96.3952 4.56276C95.6864 4.38897 94.9677 4.30207 94.2393 4.30207C92.8414 4.30207 91.66 4.58207 90.6953 5.14207C89.7305 5.70207 89.002 6.5131 88.5098 7.57517C88.0176 8.63724 87.7715 9.94069 87.7715 11.4855C87.7715 13.011 88.0176 14.3145 88.5098 15.3959C89.002 16.4772 89.7305 17.2979 90.6953 17.8579C91.66 18.4179 92.8414 18.6979 94.2393 18.6979C94.9874 18.6979 95.7258 18.611 96.4542 18.4372C97.1827 18.2441 97.8718 17.9545 98.5216 17.5683C98.9547 17.3172 99.3386 17.211 99.6733 17.2497C100.028 17.269 100.323 17.3848 100.559 17.5972C100.796 17.8097 100.953 18.08 101.032 18.4083C101.111 18.7172 101.091 19.0455 100.973 19.3931C100.855 19.7214 100.618 20.011 100.264 20.2621C99.4765 20.8221 98.5314 21.2566 97.4288 21.5655C96.346 21.8552 95.2434 22 94.1211 22Z" fill="#313632"/>
<path d="M109.389 22C108.345 22 107.41 21.8069 106.583 21.4207C105.776 21.0152 105.136 20.4745 104.664 19.7986C104.211 19.1228 103.984 18.36 103.984 17.5103C103.984 16.4676 104.26 15.6469 104.811 15.0483C105.362 14.4303 106.258 13.9862 107.499 13.7159C108.739 13.4455 110.403 13.3103 112.49 13.3103H113.966V15.3959H112.519C111.299 15.3959 110.324 15.4538 109.596 15.5697C108.867 15.6855 108.345 15.8883 108.03 16.1779C107.735 16.4483 107.587 16.8345 107.587 17.3366C107.587 17.9738 107.814 18.4952 108.267 18.9007C108.719 19.3062 109.349 19.509 110.157 19.509C110.806 19.509 111.377 19.3641 111.87 19.0745C112.382 18.7655 112.785 18.3503 113.08 17.829C113.376 17.3076 113.523 16.709 113.523 16.0331V12.7021C113.523 11.7366 113.307 11.0414 112.874 10.6166C112.441 10.1917 111.712 9.97931 110.688 9.97931C110.117 9.97931 109.497 10.0469 108.828 10.1821C108.178 10.3172 107.489 10.549 106.76 10.8772C106.386 11.051 106.052 11.0993 105.756 11.0221C105.481 10.9448 105.264 10.7903 105.107 10.5586C104.949 10.3076 104.87 10.0372 104.87 9.74759C104.87 9.45793 104.949 9.17793 105.107 8.90759C105.264 8.61793 105.53 8.40552 105.904 8.27035C106.81 7.90345 107.676 7.64276 108.503 7.48828C109.349 7.33379 110.117 7.25655 110.806 7.25655C112.224 7.25655 113.386 7.46897 114.291 7.89379C115.217 8.31862 115.906 8.96552 116.359 9.83448C116.812 10.6841 117.038 11.7848 117.038 13.1366V20.0883C117.038 20.6869 116.89 21.1503 116.595 21.4786C116.3 21.7876 115.876 21.9421 115.325 21.9421C114.774 21.9421 114.341 21.7876 114.026 21.4786C113.73 21.1503 113.583 20.6869 113.583 20.0883V18.6979H113.819C113.681 19.3738 113.405 19.9628 112.992 20.4648C112.598 20.9476 112.096 21.3241 111.486 21.5945C110.875 21.8648 110.176 22 109.389 22Z" fill="#313632"/>
<path d="M122.675 21.9421C122.065 21.9421 121.592 21.7876 121.257 21.4786C120.942 21.1503 120.785 20.6869 120.785 20.0883V9.13931C120.785 8.54069 120.942 8.0869 121.257 7.77793C121.572 7.46897 122.015 7.31448 122.586 7.31448C123.157 7.31448 123.6 7.46897 123.915 7.77793C124.23 8.0869 124.388 8.54069 124.388 9.13931V10.9641H124.093C124.368 9.80552 124.91 8.9269 125.717 8.32828C126.524 7.72966 127.597 7.37241 128.936 7.25655C129.35 7.21793 129.674 7.32414 129.911 7.57517C130.167 7.8069 130.314 8.17379 130.354 8.67586C130.393 9.15862 130.275 9.55448 129.999 9.86345C129.743 10.1531 129.35 10.3269 128.818 10.3848L128.168 10.4428C126.967 10.5586 126.062 10.9255 125.451 11.5434C124.841 12.1421 124.536 12.9917 124.536 14.0924V20.0883C124.536 20.6869 124.378 21.1503 124.063 21.4786C123.748 21.7876 123.285 21.9421 122.675 21.9421Z" fill="#313632"/>
<path d="M138.672 22C137.412 22 136.299 21.7007 135.334 21.1021C134.389 20.5034 133.651 19.6538 133.119 18.5531C132.588 17.4331 132.322 16.12 132.322 14.6138C132.322 13.0883 132.588 11.7848 133.119 10.7034C133.651 9.60276 134.389 8.7531 135.334 8.15448C136.299 7.55586 137.412 7.25655 138.672 7.25655C139.873 7.25655 140.916 7.54621 141.802 8.12552C142.708 8.70483 143.318 9.46759 143.633 10.4138H143.308V2.88276C143.308 2.28414 143.466 1.83034 143.781 1.52138C144.096 1.21241 144.549 1.05793 145.139 1.05793C145.73 1.05793 146.183 1.21241 146.498 1.52138C146.833 1.83034 147 2.28414 147 2.88276V20.0883C147 20.6869 146.842 21.1503 146.527 21.4786C146.212 21.7876 145.76 21.9421 145.169 21.9421C144.578 21.9421 144.125 21.7876 143.81 21.4786C143.495 21.1503 143.338 20.6869 143.338 20.0883V17.829L143.663 18.6979C143.367 19.7021 142.767 20.5034 141.861 21.1021C140.956 21.7007 139.892 22 138.672 22ZM139.705 19.2483C140.434 19.2483 141.074 19.0745 141.625 18.7269C142.176 18.3793 142.6 17.8676 142.895 17.1917C143.21 16.4966 143.367 15.6372 143.367 14.6138C143.367 13.069 143.033 11.92 142.363 11.1669C141.694 10.3945 140.808 10.0083 139.705 10.0083C138.977 10.0083 138.337 10.1821 137.786 10.5297C137.234 10.8579 136.801 11.3697 136.486 12.0648C136.191 12.7407 136.043 13.5903 136.043 14.6138C136.043 16.1393 136.378 17.2979 137.047 18.0897C137.717 18.8621 138.603 19.2483 139.705 19.2483Z" fill="#313632"/>
<path d="M94.1211 22C91.9554 22 90.0948 21.5752 88.5394 20.7255C87.0036 19.8566 85.8223 18.64 84.9954 17.0759C84.1685 15.4924 83.755 13.629 83.755 11.4855C83.755 9.88276 83.9913 8.44414 84.4638 7.16966C84.9363 5.87586 85.6156 4.77517 86.5016 3.86759C87.3876 2.94069 88.4704 2.23586 89.7502 1.7531C91.0497 1.25103 92.5066 1 94.1211 1C95.204 1 96.2672 1.13517 97.3107 1.40552C98.3542 1.67586 99.2697 2.06207 100.057 2.56414C100.471 2.81517 100.746 3.12414 100.884 3.49104C101.022 3.83862 101.052 4.18621 100.973 4.53379C100.894 4.86207 100.727 5.14207 100.471 5.37379C100.234 5.60552 99.9293 5.74069 99.5552 5.77931C99.2008 5.79862 98.807 5.6731 98.3739 5.40276C97.7635 5.01655 97.104 4.73655 96.3952 4.56276C95.6864 4.38897 94.9677 4.30207 94.2393 4.30207C92.8414 4.30207 91.66 4.58207 90.6953 5.14207C89.7305 5.70207 89.002 6.5131 88.5098 7.57517C88.0176 8.63724 87.7715 9.94069 87.7715 11.4855C87.7715 13.011 88.0176 14.3145 88.5098 15.3959C89.002 16.4772 89.7305 17.2979 90.6953 17.8579C91.66 18.4179 92.8414 18.6979 94.2393 18.6979C94.9874 18.6979 95.7258 18.611 96.4542 18.4372C97.1827 18.2441 97.8718 17.9545 98.5216 17.5683C98.9547 17.3172 99.3386 17.211 99.6733 17.2497C100.028 17.269 100.323 17.3848 100.559 17.5972C100.796 17.8097 100.953 18.08 101.032 18.4083C101.111 18.7172 101.091 19.0455 100.973 19.3931C100.855 19.7214 100.618 20.011 100.264 20.2621C99.4765 20.8221 98.5314 21.2566 97.4288 21.5655C96.346 21.8552 95.2434 22 94.1211 22Z" stroke="#313632" stroke-width="2" mask="url(#path-2-outside-1_4027_3)"/>
<path d="M109.389 22C108.345 22 107.41 21.8069 106.583 21.4207C105.776 21.0152 105.136 20.4745 104.664 19.7986C104.211 19.1228 103.984 18.36 103.984 17.5103C103.984 16.4676 104.26 15.6469 104.811 15.0483C105.362 14.4303 106.258 13.9862 107.499 13.7159C108.739 13.4455 110.403 13.3103 112.49 13.3103H113.966V15.3959H112.519C111.299 15.3959 110.324 15.4538 109.596 15.5697C108.867 15.6855 108.345 15.8883 108.03 16.1779C107.735 16.4483 107.587 16.8345 107.587 17.3366C107.587 17.9738 107.814 18.4952 108.267 18.9007C108.719 19.3062 109.349 19.509 110.157 19.509C110.806 19.509 111.377 19.3641 111.87 19.0745C112.382 18.7655 112.785 18.3503 113.08 17.829C113.376 17.3076 113.523 16.709 113.523 16.0331V12.7021C113.523 11.7366 113.307 11.0414 112.874 10.6166C112.441 10.1917 111.712 9.97931 110.688 9.97931C110.117 9.97931 109.497 10.0469 108.828 10.1821C108.178 10.3172 107.489 10.549 106.76 10.8772C106.386 11.051 106.052 11.0993 105.756 11.0221C105.481 10.9448 105.264 10.7903 105.107 10.5586C104.949 10.3076 104.87 10.0372 104.87 9.74759C104.87 9.45793 104.949 9.17793 105.107 8.90759C105.264 8.61793 105.53 8.40552 105.904 8.27035C106.81 7.90345 107.676 7.64276 108.503 7.48828C109.349 7.33379 110.117 7.25655 110.806 7.25655C112.224 7.25655 113.386 7.46897 114.291 7.89379C115.217 8.31862 115.906 8.96552 116.359 9.83448C116.812 10.6841 117.038 11.7848 117.038 13.1366V20.0883C117.038 20.6869 116.89 21.1503 116.595 21.4786C116.3 21.7876 115.876 21.9421 115.325 21.9421C114.774 21.9421 114.341 21.7876 114.026 21.4786C113.73 21.1503 113.583 20.6869 113.583 20.0883V18.6979H113.819C113.681 19.3738 113.405 19.9628 112.992 20.4648C112.598 20.9476 112.096 21.3241 111.486 21.5945C110.875 21.8648 110.176 22 109.389 22Z" stroke="#313632" stroke-width="2" mask="url(#path-2-outside-1_4027_3)"/>
<path d="M122.675 21.9421C122.065 21.9421 121.592 21.7876 121.257 21.4786C120.942 21.1503 120.785 20.6869 120.785 20.0883V9.13931C120.785 8.54069 120.942 8.0869 121.257 7.77793C121.572 7.46897 122.015 7.31448 122.586 7.31448C123.157 7.31448 123.6 7.46897 123.915 7.77793C124.23 8.0869 124.388 8.54069 124.388 9.13931V10.9641H124.093C124.368 9.80552 124.91 8.9269 125.717 8.32828C126.524 7.72966 127.597 7.37241 128.936 7.25655C129.35 7.21793 129.674 7.32414 129.911 7.57517C130.167 7.8069 130.314 8.17379 130.354 8.67586C130.393 9.15862 130.275 9.55448 129.999 9.86345C129.743 10.1531 129.35 10.3269 128.818 10.3848L128.168 10.4428C126.967 10.5586 126.062 10.9255 125.451 11.5434C124.841 12.1421 124.536 12.9917 124.536 14.0924V20.0883C124.536 20.6869 124.378 21.1503 124.063 21.4786C123.748 21.7876 123.285 21.9421 122.675 21.9421Z" stroke="#313632" stroke-width="2" mask="url(#path-2-outside-1_4027_3)"/>
<path d="M138.672 22C137.412 22 136.299 21.7007 135.334 21.1021C134.389 20.5034 133.651 19.6538 133.119 18.5531C132.588 17.4331 132.322 16.12 132.322 14.6138C132.322 13.0883 132.588 11.7848 133.119 10.7034C133.651 9.60276 134.389 8.7531 135.334 8.15448C136.299 7.55586 137.412 7.25655 138.672 7.25655C139.873 7.25655 140.916 7.54621 141.802 8.12552C142.708 8.70483 143.318 9.46759 143.633 10.4138H143.308V2.88276C143.308 2.28414 143.466 1.83034 143.781 1.52138C144.096 1.21241 144.549 1.05793 145.139 1.05793C145.73 1.05793 146.183 1.21241 146.498 1.52138C146.833 1.83034 147 2.28414 147 2.88276V20.0883C147 20.6869 146.842 21.1503 146.527 21.4786C146.212 21.7876 145.76 21.9421 145.169 21.9421C144.578 21.9421 144.125 21.7876 143.81 21.4786C143.495 21.1503 143.338 20.6869 143.338 20.0883V17.829L143.663 18.6979C143.367 19.7021 142.767 20.5034 141.861 21.1021C140.956 21.7007 139.892 22 138.672 22ZM139.705 19.2483C140.434 19.2483 141.074 19.0745 141.625 18.7269C142.176 18.3793 142.6 17.8676 142.895 17.1917C143.21 16.4966 143.367 15.6372 143.367 14.6138C143.367 13.069 143.033 11.92 142.363 11.1669C141.694 10.3945 140.808 10.0083 139.705 10.0083C138.977 10.0083 138.337 10.1821 137.786 10.5297C137.234 10.8579 136.801 11.3697 136.486 12.0648C136.191 12.7407 136.043 13.5903 136.043 14.6138C136.043 16.1393 136.378 17.2979 137.047 18.0897C137.717 18.8621 138.603 19.2483 139.705 19.2483Z" stroke="#313632" stroke-width="2" mask="url(#path-2-outside-1_4027_3)"/>
<path d="M11.3661 22C9.20036 22 7.33978 21.5752 5.78437 20.7255C4.24864 19.8566 3.06732 18.64 2.24039 17.0759C1.41346 15.4924 1 13.629 1 11.4855C1 9.88276 1.23626 8.44414 1.70879 7.16966C2.18132 5.87586 2.86059 4.77517 3.74658 3.86759C4.63257 2.94069 5.71546 2.23586 6.99522 1.7531C8.29468 1.25103 9.75165 1 11.3661 1C12.449 1 13.5122 1.13517 14.5557 1.40552C15.5992 1.67586 16.5147 2.06207 17.3023 2.56414C17.7157 2.81517 17.9914 3.12414 18.1292 3.49104C18.267 3.83862 18.2966 4.18621 18.2178 4.53379C18.1391 4.86207 17.9717 5.14207 17.7157 5.37379C17.4795 5.60552 17.1743 5.74069 16.8002 5.77931C16.4458 5.79862 16.052 5.6731 15.6189 5.40276C15.0085 5.01655 14.349 4.73655 13.6402 4.56276C12.9314 4.38897 12.2127 4.30207 11.4843 4.30207C10.0864 4.30207 8.90503 4.58207 7.94028 5.14207C6.97554 5.70207 6.24705 6.5131 5.75483 7.57517C5.26261 8.63724 5.0165 9.94069 5.0165 11.4855C5.0165 13.011 5.26261 14.3145 5.75483 15.3959C6.24705 16.4772 6.97554 17.2979 7.94028 17.8579C8.90503 18.4179 10.0864 18.6979 11.4843 18.6979C12.2324 18.6979 12.9708 18.611 13.6992 18.4372C14.4277 18.2441 15.1168 17.9545 15.7666 17.5683C16.1997 17.3172 16.5836 17.211 16.9184 17.2497C17.2728 17.269 17.5681 17.3848 17.8043 17.5972C18.0406 17.8097 18.1981 18.08 18.2769 18.4083C18.3556 18.7172 18.3359 19.0455 18.2178 19.3931C18.0997 19.7214 17.8634 20.011 17.509 20.2621C16.7215 20.8221 15.7764 21.2566 14.6738 21.5655C13.591 21.8552 12.4884 22 11.3661 22ZM27.3302 22C25.696 22 24.4655 21.5462 23.6386 20.6386C22.8116 19.7117 22.3982 18.36 22.3982 16.5834V2.88276C22.3982 2.28414 22.5557 1.83034 22.8707 1.52138C23.1857 1.21241 23.6385 1.05793 24.2292 1.05793C24.8199 1.05793 25.2727 1.21241 25.5877 1.52138C25.9224 1.83034 26.0898 2.28414 26.0898 2.88276V16.4097C26.0898 17.2979 26.2768 17.9545 26.6509 18.3793C27.0447 18.8041 27.596 19.0166 28.3048 19.0166C28.4623 19.0166 28.61 19.0166 28.7478 19.0166C28.8856 18.9972 29.0234 18.9779 29.1612 18.9586C29.4369 18.92 29.6239 18.9972 29.7224 19.1903C29.8208 19.3641 29.87 19.731 29.87 20.291C29.87 20.7738 29.7716 21.1503 29.5747 21.4207C29.3778 21.691 29.053 21.8552 28.6001 21.9131C28.4032 21.9324 28.1965 21.9517 27.9799 21.971C27.7633 21.9903 27.5468 22 27.3302 22ZM39.8024 22C38.1683 22 36.7605 21.7007 35.5792 21.1021C34.3979 20.5034 33.4823 19.6538 32.8326 18.5531C32.2026 17.4524 31.8875 16.149 31.8875 14.6428C31.8875 13.1752 32.1927 11.891 32.8031 10.7903C33.4331 9.68966 34.2896 8.83035 35.3725 8.21241C36.475 7.57517 37.7253 7.25655 39.1232 7.25655C40.147 7.25655 41.0625 7.42069 41.8697 7.74897C42.6967 8.07724 43.3956 8.55035 43.9666 9.16828C44.5573 9.78621 45.0003 10.5393 45.2956 11.4276C45.6106 12.2966 45.7681 13.2814 45.7681 14.3821C45.7681 14.7297 45.6401 15 45.3842 15.1931C45.1479 15.3669 44.8034 15.4538 44.3505 15.4538H34.8704V13.3683H43.1692L42.6967 13.8028C42.6967 12.9145 42.5588 12.171 42.2832 11.5724C42.0272 10.9738 41.6433 10.52 41.1314 10.211C40.6392 9.88276 40.019 9.71862 39.2708 9.71862C38.4439 9.71862 37.7351 9.91172 37.1444 10.2979C36.5735 10.6648 36.1305 11.1959 35.8155 11.891C35.5201 12.5669 35.3725 13.3779 35.3725 14.3241V14.5269C35.3725 16.1103 35.7465 17.2979 36.4947 18.0897C37.2626 18.8621 38.3848 19.2483 39.8615 19.2483C40.3734 19.2483 40.9444 19.1903 41.5744 19.0745C42.2241 18.9393 42.8345 18.7172 43.4055 18.4083C43.8189 18.1766 44.1832 18.08 44.4982 18.1186C44.8132 18.1379 45.0593 18.2441 45.2365 18.4372C45.4334 18.6303 45.5515 18.8717 45.5909 19.1614C45.6303 19.4317 45.5712 19.7117 45.4137 20.0014C45.2759 20.291 45.0298 20.5421 44.6754 20.7545C43.9863 21.1793 43.1889 21.4979 42.2832 21.7103C41.3972 21.9035 40.5703 22 39.8024 22ZM54.4465 22C53.403 22 52.4678 21.8069 51.6409 21.4207C50.8336 21.0152 50.1937 20.4745 49.7212 19.7986C49.2684 19.1228 49.0419 18.36 49.0419 17.5103C49.0419 16.4676 49.3176 15.6469 49.8689 15.0483C50.4201 14.4303 51.316 13.9862 52.5564 13.7159C53.7968 13.4455 55.4605 13.3103 57.5475 13.3103H59.0241V15.3959H57.577C56.3563 15.3959 55.3817 15.4538 54.6532 15.5697C53.9247 15.6855 53.403 15.8883 53.088 16.1779C52.7926 16.4483 52.645 16.8345 52.645 17.3366C52.645 17.9738 52.8714 18.4952 53.3242 18.9007C53.7771 19.3062 54.4071 19.509 55.2144 19.509C55.8641 19.509 56.4351 19.3641 56.9273 19.0745C57.4392 18.7655 57.8428 18.3503 58.1381 17.829C58.4335 17.3076 58.5811 16.709 58.5811 16.0331V12.7021C58.5811 11.7366 58.3646 11.0414 57.9314 10.6166C57.4983 10.1917 56.7698 9.97931 55.746 9.97931C55.175 9.97931 54.5548 10.0469 53.8854 10.1821C53.2356 10.3172 52.5465 10.549 51.818 10.8772C51.444 11.051 51.1093 11.0993 50.8139 11.0221C50.5383 10.9448 50.3217 10.7903 50.1642 10.5586C50.0067 10.3076 49.9279 10.0372 49.9279 9.74759C49.9279 9.45793 50.0067 9.17793 50.1642 8.90759C50.3217 8.61793 50.5875 8.40552 50.9616 8.27035C51.8673 7.90345 52.7336 7.64276 53.5605 7.48828C54.4071 7.33379 55.175 7.25655 55.8641 7.25655C57.2817 7.25655 58.4433 7.46897 59.349 7.89379C60.2744 8.31862 60.9635 8.96552 61.4163 9.83448C61.8692 10.6841 62.0956 11.7848 62.0956 13.1366V20.0883C62.0956 20.6869 61.9479 21.1503 61.6526 21.4786C61.3572 21.7876 60.9339 21.9421 60.3827 21.9421C59.8314 21.9421 59.3982 21.7876 59.0832 21.4786C58.7879 21.1503 58.6402 20.6869 58.6402 20.0883V18.6979H58.8765C58.7386 19.3738 58.463 19.9628 58.0495 20.4648C57.6558 20.9476 57.1537 21.3241 56.5433 21.5945C55.933 21.8648 55.234 22 54.4465 22ZM67.6736 21.9421C67.083 21.9421 66.6301 21.7876 66.3151 21.4786C66.0001 21.1503 65.8426 20.6869 65.8426 20.0883V9.13931C65.8426 8.54069 66.0001 8.0869 66.3151 7.77793C66.6301 7.46897 67.0731 7.31448 67.6441 7.31448C68.2151 7.31448 68.6581 7.46897 68.9731 7.77793C69.2881 8.0869 69.4456 8.54069 69.4456 9.13931V11.109L69.1208 10.3848C69.5539 9.36138 70.2233 8.58897 71.129 8.06759C72.0544 7.5269 73.0979 7.25655 74.2595 7.25655C75.4212 7.25655 76.3761 7.46897 77.1242 7.89379C77.8724 8.31862 78.4335 8.96552 78.8076 9.83448C79.1817 10.6841 79.3688 11.7655 79.3688 13.0786V20.0883C79.3688 20.6869 79.2113 21.1503 78.8962 21.4786C78.5812 21.7876 78.1284 21.9421 77.5377 21.9421C76.947 21.9421 76.4844 21.7876 76.1497 21.4786C75.8346 21.1503 75.6771 20.6869 75.6771 20.0883V13.2524C75.6771 12.1517 75.4605 11.3503 75.0274 10.8483C74.6139 10.3462 73.9642 10.0952 73.0782 10.0952C71.9953 10.0952 71.129 10.4331 70.4793 11.109C69.8492 11.7655 69.5342 12.6441 69.5342 13.7448V20.0883C69.5342 21.3241 68.914 21.9421 67.6736 21.9421Z" stroke="#313632" stroke-width="2" mask="url(#path-2-outside-1_4027_3)"/>
</svg>
